<svg id="Layer_10" data-name="Layer 10" xmlns="http://www.w3.org/2000/svg" viewBox="0 0 61.59 61.59"><defs><style>.cls-1{fill:#fff;}</style></defs><path class="cls-1" d="M122.67,1.21A30.79,30.79,0,1,0,153.46,32,30.83,30.83,0,0,0,122.67,1.21Zm18.14,37.54a12.05,12.05,0,0,1-11.36,11.39c-1.88.11-3.8.17-5.71.19h-1c-2.25,0-4.51-.06-6.74-.18a12.05,12.05,0,0,1-11.42-11.31c-.13-2.26-.19-4.56-.19-6.84s.06-4.51.18-6.75a12,12,0,0,1,11.31-11.39,125.73,125.73,0,0,1,13.59,0A12,12,0,0,1,140.8,25.16c.13,2.27.2,4.57.2,6.84S140.93,36.51,140.81,38.75Z" transform="translate(-91.87 -1.21)"/><path class="cls-1" d="M129.26,16.61c-2.19-.12-4.41-.18-6.59-.18s-4.47.06-6.69.18a9.28,9.28,0,0,0-8.7,8.79c-.12,2.19-.19,4.41-.19,6.6s.07,4.47.19,6.69a9.29,9.29,0,0,0,8.82,8.7c2.52.14,5.09.2,7.61.18,1.87,0,3.75-.08,5.58-.18a9.31,9.31,0,0,0,8.76-8.8c.13-2.18.19-4.4.19-6.59s-.06-4.46-.19-6.69A9.27,9.27,0,0,0,129.26,16.61Zm-6.59,24.91A9.52,9.52,0,1,1,132.18,32,9.53,9.53,0,0,1,122.67,41.52Zm9.49-17a2,2,0,1,1,2-2A2,2,0,0,1,132.16,24.49Z" transform="translate(-91.87 -1.21)"/><circle class="cls-1" cx="30.79" cy="30.79" r="6.76"/></svg>