<svg id="Icon_Whats_no_Stroke" data-name="Icon Whats no Stroke" xmlns="http://www.w3.org/2000/svg" viewBox="0 0 53.98 49.13"><defs><style>.cls-1,.cls-2{fill:#044b9a;}.cls-1{fill-rule:evenodd;}</style></defs><path class="cls-1" d="M58.78,54.26,50.42,31.72a2.08,2.08,0,0,0-1.9-1.3h-4.9q-.54.91-1.11,1.8H47a.29.29,0,0,1,.27.2l5.67,18a.3.3,0,0,1-.19.36H52.7a.29.29,0,0,1-.27-.2l-5.6-17.77H42.14a74.14,74.14,0,0,1-9.6,11.57l-.88.85-.83-.9a97.88,97.88,0,0,1-9.12-11.52H17.2L10.88,52.84H42.76a.29.29,0,0,1,0,.57H10.49a.31.31,0,0,1-.23-.12.32.32,0,0,1,0-.25l6.51-20.62a.27.27,0,0,1,.27-.2h4.34q-.57-.9-1.08-1.8H15.52a2.07,2.07,0,0,0-2,1.6c0,.17-8.27,22.24-8.27,22.24-1,2.59,1.33,2.29,3,2.29H55.81C57.45,56.55,59.69,56.55,58.78,54.26Zm-12-.85H44.23a.29.29,0,1,1,0-.57H46.8a.29.29,0,0,1,0,.57Zm2.05,0h-.54a.29.29,0,0,1,0-.57h.54a.29.29,0,1,1,0,.57Z" transform="translate(-5.01 -7.44)"/><path class="cls-2" d="M32,7.44A13.53,13.53,0,0,0,19.53,26.19c2.62,7.07,12.16,17.3,12.16,17.3s8.61-8.23,12.78-17.3A13.53,13.53,0,0,0,32,7.44Zm7.69,9a.29.29,0,0,1,.38.11l.23.43a.29.29,0,0,1-.13.38.31.31,0,0,1-.13,0,.28.28,0,0,1-.25-.16l-.21-.4A.28.28,0,0,1,39.69,16.44Zm-3.34-3.22a.28.28,0,0,1,.39-.1,9.22,9.22,0,0,1,2.35,2l.33.41a.28.28,0,0,1-.22.46.28.28,0,0,1-.22-.1l-.33-.41a8.85,8.85,0,0,0-2.2-1.89A.27.27,0,0,1,36.35,13.22Zm2.17,7.83A6.52,6.52,0,1,1,32,14.53,6.52,6.52,0,0,1,38.52,21.05ZM41,23.32a9.25,9.25,0,1,1-6.06-11l.73.28a.29.29,0,0,1-.21.53l-.71-.28A8.78,8.78,0,0,0,32,12.38a8.67,8.67,0,1,0,8.41,10.8,8.33,8.33,0,0,0,.2-1.11.28.28,0,1,1,.56.07A9.74,9.74,0,0,1,41,23.32Z" transform="translate(-5.01 -7.44)"/></svg>