<svg id="Novos_ícones_Setores" data-name="Novos ícones Setores" xmlns="http://www.w3.org/2000/svg" viewBox="0 0 58.22 58.21"><defs><style>.cls-1{fill:#044b9a;}</style></defs><path class="cls-1" d="M47.12,30H34V16.88a2,2,0,1,0-4,0V30H16.88a2,2,0,1,0,0,4H30V47.12a2,2,0,1,0,4,0V34H47.12a2,2,0,1,0,0-4Z" transform="translate(-2.89 -2.89)"/><path class="cls-1" d="M53,11.85A29.1,29.1,0,1,0,31.41,61.1H32a29.08,29.08,0,0,0,8.79-1.36,1.5,1.5,0,0,0-.91-2.86,26.13,26.13,0,0,1-34-25.42,26.11,26.11,0,1,1,52.2,1.06,27.49,27.49,0,0,1-.21,2.87,1.5,1.5,0,1,0,3,.39,28.53,28.53,0,0,0,.24-3.2A28.89,28.89,0,0,0,53,11.85Z" transform="translate(-2.89 -2.89)"/><circle class="cls-1" cx="42.93" cy="51.92" r="2"/><circle class="cls-1" cx="49.52" cy="45.99" r="2"/><circle class="cls-1" cx="53.66" cy="38.59" r="2"/></svg>