<svg id="Novos_ícones_Pages" data-name="Novos ícones Pages" xmlns="http://www.w3.org/2000/svg" viewBox="0 0 53 48.36"><defs><style>.cls-1{fill:#044b9a;}</style></defs><g id="Icone_Universidade" data-name="Icone Universidade"><path class="cls-1" d="M57.39,20.18,33,8a2.08,2.08,0,0,0-1.85,0L6.69,20.18a2.07,2.07,0,0,0,.92,3.92h2.77v2.26l.06,1.06h.77V45.33h-.66A1.66,1.66,0,0,0,8.89,47v2.85H7.81a1.65,1.65,0,0,0-1.66,1.65v3a1.66,1.66,0,0,0,1.66,1.66H56.27a1.65,1.65,0,0,0,1.65-1.66v-3a1.65,1.65,0,0,0-1.65-1.65H55.18V47a1.65,1.65,0,0,0-1.65-1.66h-.66V27.41l.82-.05V24.1h2.77a2.07,2.07,0,0,0,.93-3.92Zm-39.6,5.24H12.38V24.1h5.41Zm-.83,2V44.71H13.21V27.42Zm2,0,.83-.05V24.1h1.89v2.26l.06,1.06h.77V45.33H19Zm16.85,0h3.75V44.71H35.81Zm4.58-2H35V24.1h5.4Zm-7.35,2h.77V45.33H30.26V27.41l.83-.05V24.1H33v2.26Zm-8.53,0h3.75V44.71H24.51Zm4.58-2H23.68V24.1h5.41ZM56.15,51.61v2.73H7.93V51.61H43.22a.89.89,0,0,0,0-1.77H10.67V47.11H53.41v4.5ZM41.56,45.33V27.41l.83-.05V24.1h1.9v2.26l.05,1.06h.78V45.33Zm5.56-17.91h3.75V44.71H47.12Zm4.57-2h-5.4V24.1h5.4Zm4.77-3.32H7.61l0-.13L32,9.77,56.49,22l.45-.89Z" transform="translate(-5.54 -7.76)"/><path class="cls-1" d="M50.68,49.73H46.91a1,1,0,0,0,0,2h3.77a1,1,0,0,0,0-2Z" transform="translate(-5.54 -7.76)"/></g></svg>