<svg id="Icon_Whats_no_Stroke" data-name="Icon Whats no Stroke" xmlns="http://www.w3.org/2000/svg" viewBox="0 0 57.66 58.11"><defs><style>.cls-1{fill:#044b9a;fill-rule:evenodd;}</style></defs><g id="Icone_whats" data-name="Icone whats"><path class="cls-1" d="M136.46,37.68c-.71-.39-4.19-2.27-4.85-2.53s-1.13-.41-1.64.3-1.95,2.28-2.39,2.74-.86.52-1.57.13a19.75,19.75,0,0,1-5.68-3.81,21.39,21.39,0,0,1-3.83-5.15c-.4-.74,0-1.12.37-1.46s.76-.82,1.13-1.23a4.8,4.8,0,0,0,.77-1.18,1.33,1.33,0,0,0,0-1.26c-.17-.37-1.48-4-2-5.45a1.58,1.58,0,0,0-1.58-1.27c-.61-.05-.9-.09-1.38-.11a2.68,2.68,0,0,0-2,.83,8.15,8.15,0,0,0-2.76,5.94c-.13,3.55,2.33,7.08,2.67,7.58s4.7,8.2,11.93,11.37c4.35,1.9,6.1,2.31,7.09,2.32,2.66-.24,5.86-1.78,6.52-3.44a6,6,0,0,0,.55-3.42c-.17-.31-.64-.51-1.35-.9ZM123.19,54.81a23.4,23.4,0,0,1-13-3.89l-9.06,2.9,2.94-8.75a23.56,23.56,0,1,1,19.08,9.74Zm0-51.86A28.31,28.31,0,0,0,99,45.87L93.84,61.05l15.67-5A28.31,28.31,0,1,0,123.19,3Z" transform="translate(-93.84 -2.95)"/></g></svg>