<svg id="Novos_ícones_Pages" data-name="Novos ícones Pages" xmlns="http://www.w3.org/2000/svg" viewBox="0 0 49.09 57.4"><defs><style>.cls-1{fill:#044b9a;}</style></defs><path class="cls-1" d="M57.48,17.46a19.65,19.65,0,0,1-1.82,7.1,55.14,55.14,0,0,1-8.18,12.65c-1.65,2-4.18,2.26-5.85.33-4.36-5-8.3-10.42-9.91-17-1.33-5.51.53-10.1,4.87-13.57A11.94,11.94,0,0,1,49.85,5.49C54.77,7.83,57.14,12.05,57.48,17.46ZM44.41,21.63a4.29,4.29,0,0,0,4.41-4.43,4.5,4.5,0,0,0-4.52-4.44,4.41,4.41,0,0,0-4.37,4.54A4.22,4.22,0,0,0,44.41,21.63Z" transform="translate(-8.38 -4.12)"/><path class="cls-1" d="M32.74,34c1.07,0,1.62.28,1.85,1a1.31,1.31,0,0,1-.78,1.7,31.29,31.29,0,0,1-3.51,1.4c-1.17.39-1.55,1-1.07,2.19.64,1.6,1.26,3.21,1.77,4.85.42,1.39,1.1,1.56,2.41,1.07C39.2,44,45,41.9,50.84,39.78A8,8,0,0,1,52,39.4a1.37,1.37,0,0,1,1.69.84A1.33,1.33,0,0,1,53,42a6.64,6.64,0,0,1-1.57.69c-1.14.32-1.52.93-1,2a1.79,1.79,0,0,1,.13.32c.37,1.11.87,2.41-.65,2.91S48.16,47,47.86,46c-.39-1.31-1-1.74-2.38-1.21C41.68,46.26,37.85,47.63,34,49c-1.06.37-1.31.91-.91,1.94.73,1.86,1.39,3.76,2.08,5.64.38,1,.91,2.24-.46,2.83s-1.88-.63-2.26-1.67Q29,48.29,25.53,38.84a1.83,1.83,0,0,1,1.24-2.7Z" transform="translate(-8.38 -4.12)"/><path class="cls-1" d="M30.3,59.82c0,.89-.22,1.39-.84,1.61A1.29,1.29,0,0,1,27.91,61a7.51,7.51,0,0,1-.83-1.68c-1.53-4.19-3.08-8.38-4.54-12.6-.41-1.16-.84-1.53-2.09-1-3.09,1.21-6.24,2.28-9.37,3.4-1,.37-2.13.66-2.59-.69s.62-1.82,1.62-2.19c3.11-1.15,6.23-2.3,9.37-3.37,1.15-.38,1.37-.9.94-2C19.16,37.54,18,34.25,16.82,31c-.35-.95-.65-2,.58-2.5S19.23,29,19.6,30q5.16,14.22,10.29,28.43C30.08,59,30.21,59.51,30.3,59.82Z" transform="translate(-8.38 -4.12)"/><path class="cls-1" d="M25.36,34c-1.16,0-1.67-.42-1.93-1.11-.55-1.45-1.07-2.9-1.57-4.36a1.4,1.4,0,0,1,.82-2c.92-.35,1.53.13,1.91,1l.2.48c1,2.43,1,2.45,3.5,1.78.94-.25,1.77-.16,2.17.78s-.2,1.63-1.09,2C27.93,33.07,26.48,33.58,25.36,34Z" transform="translate(-8.38 -4.12)"/></svg>