<svg id="Icon_Whats_no_Stroke" data-name="Icon Whats no Stroke" xmlns="http://www.w3.org/2000/svg" viewBox="0 0 59.07 53.76"><defs><style>.cls-1,.cls-2{fill:#044b9a;}.cls-1{fill-rule:evenodd;}</style></defs><path class="cls-1" d="M61.3,56.35S52.27,32,52.15,31.7a2.25,2.25,0,0,0-2.08-1.43H46.84a1.05,1.05,0,0,0-.91.53A81.25,81.25,0,0,1,33.51,46.48l-1.16,1.11a1.06,1.06,0,0,1-1.51,0l-1.09-1.17C29.38,46,22.11,38.13,18,30.8a1.06,1.06,0,0,0-.92-.53H14A2.27,2.27,0,0,0,11.78,32c0,.19-9,24.33-9,24.33C1.64,59.19,4.19,58.87,6,58.87H58.05C59.85,58.87,62.3,58.87,61.3,56.35Z" transform="translate(-2.47 -5.12)"/><path class="cls-2" d="M31.34,5.14a14.79,14.79,0,0,0-13,20.5c2.46,6.65,10.5,15.84,12.73,18.3a.8.8,0,0,0,1.18,0c2.15-2.16,9.51-9.91,13.37-18.33A14.8,14.8,0,0,0,31.34,5.14Zm.68,22A7.14,7.14,0,1,1,39.16,20,7.14,7.14,0,0,1,32,27.16Z" transform="translate(-2.47 -5.12)"/></svg>