<svg id="Novos_ícones_Pages" data-name="Novos ícones Pages" xmlns="http://www.w3.org/2000/svg" viewBox="0 0 57.5 57.71"><defs><style>.cls-1{fill:#044b9a;}</style></defs><path class="cls-1" d="M44.52,35.89c-.46,1-1,2.32-1.61,3.61q-1.84,4.19-3.7,8.36c-.39.85-1,1.49-2,1s-.91-1.28-.51-2.17c1.74-3.86,3.45-7.74,5.17-11.61a1.45,1.45,0,0,1,1.89-1C44.49,34.32,44.63,34.92,44.52,35.89Z" transform="translate(-3.53 -2.81)"/><path class="cls-1" d="M45.24,45a1.17,1.17,0,0,1-.92-1.75c.83-2.11,1.77-4.16,2.75-6.2a1.33,1.33,0,0,1,1.7-.75,1.31,1.31,0,0,1,.79,1.82c-.87,2.08-1.83,4.12-2.8,6.16A1.4,1.4,0,0,1,45.24,45Z" transform="translate(-3.53 -2.81)"/><path class="cls-1" d="M20.93,45.82c.08-.76.44-1.24,1.26-1.26a1.18,1.18,0,0,1,1.37,1.31,1.24,1.24,0,0,1-1.24,1.32A1.3,1.3,0,0,1,20.93,45.82Z" transform="translate(-3.53 -2.81)"/><path class="cls-1" d="M60.79,20.92C59.23,15.67,58,10.31,56.77,5a2.39,2.39,0,0,0-2.68-2.17q-21.84,0-43.67,0A2.23,2.23,0,0,0,7.9,4.76C6.53,10.47,5.1,16.17,3.67,21.87a3.87,3.87,0,0,0-.08,1.66c1,5.49,6.92,7.66,11.36,4.14.63-.5,1-.87,1.78-.15,2.86,2.53,6.22,2.55,9.22.07.73-.59,1.06-.62,1.78,0a6.65,6.65,0,0,0,9.1,0c.8-.71,1.15-.6,1.91,0a6.59,6.59,0,0,0,9.1-.09c.75-.66,1.12-.53,1.78.06a6.21,6.21,0,0,0,4.48,1.72C58.52,29.68,62,25,60.79,20.92ZM16.41,7.14c-.07.62-1.34,10.78-2.08,16.14a3.84,3.84,0,0,1-4.54,3.3A3.74,3.74,0,0,1,6.5,22.07C7.65,16.9,9,11.76,10.28,6.61A1.31,1.31,0,0,1,10.59,6a20.38,20.38,0,0,1,5.68-.14C16.62,6.15,16.49,6.51,16.41,7.14ZM25.81,9q-.14,6.61-.33,13.22c-.08,2.75-1.84,4.53-4.31,4.43s-4.09-2-3.8-4.79c.5-4.89,1.16-9.76,1.75-14.64.11-.95.48-1.42,1.63-1.42s-.32,0,1.86,0S25.87,5.78,25.81,9Zm6.51,17.66a3.94,3.94,0,0,1-4.08-3.88c0-1,0-1.93,0-2.89.22-4.23.38-8.47.32-12.71a1.2,1.2,0,0,1,1.34-1.38h4.92C35.49,5.77,36,6,36,6.93c.1,5.26.28,10.51.33,15.77A3.87,3.87,0,0,1,32.32,26.62Zm11.45,0c-2.53.27-4.46-1.47-4.62-4.27-.1-1.7,0-3.4-.08-5.1C39,14.12,39,11,38.74,7.91c-.12-1.7-.2-2.14,2.11-2.14,3.21,0,4.37,0,4.77,3.14L47.21,21C47.64,24.19,46.33,26.32,43.77,26.59Zm11.32,0c-2.51.54-4.47-.93-4.88-3.84-.71-5.09-1.26-10.19-2-15.28-.18-1.35.15-1.87,1.52-1.66a10.26,10.26,0,0,0,1.36,0c3,0,3,0,3.71,2.88L58,21.15C58.64,23.92,57.52,26,55.09,26.55Z" transform="translate(-3.53 -2.81)"/><path class="cls-1" d="M58.22,57.71c-1.09,0-1.78-.42-1.76-1.81.07-7,0-14,0-21.06,0-.51,0-1-.05-1.53a1.25,1.25,0,0,0-1.23-1.18,1.28,1.28,0,0,0-1.36,1.06,6.38,6.38,0,0,0-.09,1.52c0,5.38,0,10.76,0,16.14,0,1.11-.46,1.41-1.42,1.41H29.59c-1,0-1.41-.33-1.4-1.42,0-5.38,0-10.76,0-16.14a5.9,5.9,0,0,0-.1-1.52,1.27,1.27,0,0,0-1.36-1,1.26,1.26,0,0,0-1.23,1.19c-.05.51,0,1,0,1.53,0,7.13,0,14.27,0,21.4,0,1.09-.06,1.45-1.41,1.45H12.54c-1.32,0-1.73-.27-1.71-1.65.08-6.12,0-12.24,0-18.35,0-1.36,0-2.72,0-4.08,0-.89-.53-1.56-1.49-1.48s-1.23.71-1.22,1.56c0,.45,0,.91,0,1.36,0,6.4,0,17.57,0,19.2,0,3.21.53,3.49-3.47,3.49-1,0-1.07.67-1.08,1.34s0,1.42,1.08,1.35c7.69,0,44.89.09,53.5.07,1.19,0,2.84.11,2.84-1.47S59.31,57.71,58.22,57.71Zm-5.83,0q-11.45-.08-22.89,0c-1.08,0-1.33-.34-1.33-1.36s0-1.45,1.4-1.45H52.3c1.26,0,1.56.09,1.5,1.35C53.75,57.34,53.56,57.75,52.39,57.74Z" transform="translate(-3.53 -2.81)"/></svg>