<svg xmlns="http://www.w3.org/2000/svg" width="41.13" height="41.16" viewBox="0 0 41.13 41.16">
  <defs>
    <style>
      .cls-1 {
        fill: #fff;
        fill-rule: evenodd;
        opacity: 0.5;
      }
    </style>
  </defs>
  <path id="insta1_1" data-name="insta1 1" class="cls-1" d="M1136.81,4104a20.575,20.575,0,1,1,20.58-20.57A20.564,20.564,0,0,1,1136.81,4104Zm11.13-28.76a2.631,2.631,0,0,0-2.94-2.91h-16.36a2.642,2.642,0,0,0-2.96,2.97v16.31a2.619,2.619,0,0,0,2.86,2.92H1145a2.648,2.648,0,0,0,2.94-2.94v-16.35Zm-3.86,16.78h-14.54c-1.02,0-1.3-.31-1.3-1.35,0-2.65.01-5.38-.04-8.08,0-.77.21-0.94,0.92-0.91,1.01,0.07,1.03.03,0.92,1.01a6.838,6.838,0,0,0,5.37,7.43,6.915,6.915,0,0,0,7.94-4.76,6.78,6.78,0,0,0,.15-3.19c-0.07-.39.02-0.46,0.37-0.46,1.53-.12,1.53-0.15,1.53,1.45v7.51C1145.38,4091.71,1145.11,4092.02,1144.08,4092.02Zm-0.85-12.82c-2.18,0-2.18,0-2.18-2.19s0-2.18,2.15-2.18c2.2,0,2.2,0,2.2,2.21C1145.4,4079.2,1145.4,4079.2,1143.23,4079.2Zm-6.48,8.53a4.305,4.305,0,1,1,4.36-4.3A4.374,4.374,0,0,1,1136.75,4087.73Z" transform="translate(-1116.25 -4062.84)"/>
</svg>
