<svg id="Novos_ícones_Pages" data-name="Novos ícones Pages" xmlns="http://www.w3.org/2000/svg" viewBox="0 0 59.33 56.47"><defs><style>.cls-1{fill:#044b9a;}</style></defs><path class="cls-1" d="M51.4,41.37a2.41,2.41,0,0,0-2.7-.3c-1.38.56-2.75,1.16-4.14,1.73a5.49,5.49,0,0,1-1.25.39,1.41,1.41,0,0,1-1.69-.94,1.35,1.35,0,0,1,.71-1.79,36.61,36.61,0,0,1,6.59-2.69,4.75,4.75,0,0,1,4.7,1.44,1.57,1.57,0,0,0,1.82.53A5.2,5.2,0,0,1,59,49.5c-6.59,2.87-13.21,5.62-19.82,8.42l-6.21,2.61a11.15,11.15,0,0,1-9.7-.22c-3.2-1.58-6.41-3.13-9.62-4.69-.35-.17-.71-.34-1.06-.54a1.53,1.53,0,1,1,1.35-2.73c3.18,1.53,6.4,3,9.49,4.65a10.08,10.08,0,0,0,9.47.25c7.94-3.49,16-6.78,23.95-10.16a6.66,6.66,0,0,0,1.39-.75A2,2,0,0,0,58.78,44a1.92,1.92,0,0,0-1.93-1.33,3.67,3.67,0,0,0-1.53.37c-5.46,2.33-11,4.6-16.39,7A7.39,7.39,0,0,1,32,49.93c-2.15-1.12-4.42-2-6.63-3-.4-.18-.8-.36-1.19-.56a1.48,1.48,0,0,1-.83-2.08,1.46,1.46,0,0,1,2.12-.7q4.37,1.91,8.7,3.85a2.61,2.61,0,0,0,2.29.15,2.11,2.11,0,0,0,1.21-1.92,2.06,2.06,0,0,0-1.28-2c-1.56-.71-3.12-1.43-4.69-2.13-2.25-1-4.5-2-6.75-3-4.91-2.15-9.5-1.71-13.78,1.62a2.51,2.51,0,0,0-1.12,2.21c0,4.41,0,8.81,0,13.22,0,2.28-.4,2.66-2.7,2.67-1,0-2,0-3,0A1.39,1.39,0,0,1,2.78,56.8c0-1,.58-1.42,1.47-1.57h.13c2.51-.3,2.51-.3,2.51-2.89,0-3.57,0-7.14,0-10.71A3.7,3.7,0,0,1,8.3,38.53c5.42-4.54,11.34-5.75,17.92-2.76,3.73,1.69,7.48,3.34,11.22,5A5.17,5.17,0,0,1,40.78,45c.08.6.22.79.82.53C44.79,44.17,48,42.82,51.4,41.37Z" transform="translate(-2.78 -5.06)"/><path class="cls-1" d="M38.05,34.47a1.76,1.76,0,0,1-.89-.25C20.26,24.14,20.21,15.47,21,12.21a9.49,9.49,0,0,1,8.69-7.14h.13c3.68,0,6.58,2.39,8.23,4.17,1.59-1.79,4.43-4.17,8.3-4.17h.13a9.5,9.5,0,0,1,8.69,7.14c.76,3.26.71,11.93-16.19,22A1.82,1.82,0,0,1,38.05,34.47ZM29.86,8.56A5.93,5.93,0,0,0,24.38,13c-.45,1.92-.75,8.78,13.67,17.66C52.48,21.79,52.18,14.93,51.73,13a5.94,5.94,0,0,0-5.48-4.45c-4,0-6.67,4.36-6.69,4.41a1.78,1.78,0,0,1-1.48.84A1.68,1.68,0,0,1,36.59,13S33.65,8.61,29.86,8.56Z" transform="translate(-2.78 -5.06)"/></svg>