<svg xmlns="http://www.w3.org/2000/svg" viewBox="0 0 482.28 138.28"><defs><style>.cls-1{fill:#044b9a;}.cls-2{fill:#8b0003;fill-rule:evenodd;}.cls-3{fill:#fff;}</style></defs><g id="Icone"><path class="cls-1" d="M32,10.74A24.6,24.6,0,1,0,56.6,35.33,24.6,24.6,0,0,0,32,10.74ZM32,56.2A20.87,20.87,0,0,1,11.13,35.33c19.57,3.28,24.36-12.9,24.36-12.9s4.06,8.45,16.18,5.91A20.88,20.88,0,0,1,32,56.2Z" transform="translate(116.59 -0.67)"/><path class="cls-1" d="M8.58,35.33a21.28,21.28,0,0,1,.5-4.61H6.44A5.83,5.83,0,0,0,.51,36.4v3.87A5.82,5.82,0,0,0,6.44,46h4.92A21.64,21.64,0,0,1,8.58,35.33Z" transform="translate(116.59 -0.67)"/><path class="cls-1" d="M57.56,30.72H54.92a21.28,21.28,0,0,1,.5,4.61A21.64,21.64,0,0,1,52.64,46h4.92a5.82,5.82,0,0,0,5.93-5.68V36.4A5.83,5.83,0,0,0,57.56,30.72Z" transform="translate(116.59 -0.67)"/><path class="cls-1" d="M59.7,36.07H56.43V26.68c0-11.38-10-19.34-24.43-19.34S7.57,15.3,7.57,26.68v9.39H4.3V26.68C4.3,13.37,15.69,4.07,32,4.07s27.7,9.3,27.7,22.61Z" transform="translate(116.59 -0.67)"/><path class="cls-1" d="M28.82,52.09a34.59,34.59,0,0,1-15.53-3.6,34.08,34.08,0,0,1-8.67-6.21l1.57-1.59a31.78,31.78,0,0,0,8.1,5.8,32.73,32.73,0,0,0,17.43,3.24L31.91,52C31,52,29.94,52.09,28.82,52.09Z" transform="translate(116.59 -0.67)"/><rect class="cls-1" x="30.42" y="48.1" width="6.01" height="4.75" rx="2.38" transform="translate(109.38 4.94) rotate(-8.66)"/><path class="cls-2" d="M-67.78,121.58a19.21,19.21,0,0,0-10.72-7.16l-4.42,15.47a2.6,2.6,0,0,1-2.59,2.59,2.6,2.6,0,0,1-2.59-2.59V117.58a3.24,3.24,0,0,0-3.24-3.24,3.24,3.24,0,0,0-3.23,3.24v12.31a2.6,2.6,0,0,1-2.59,2.59,2.61,2.61,0,0,1-2.6-2.59l-4.41-15.47a19.25,19.25,0,0,0-10.73,7.16,11.82,11.82,0,0,0-1.69,5.72c0,.38,0,.84,0,1.29v5.18a5.18,5.18,0,0,0,5.18,5.18h40.15a5.18,5.18,0,0,0,5.18-5.18v-5.18c0-.45,0-.91,0-1.29A11.73,11.73,0,0,0-67.78,121.58Zm-37.16-31.09c0,7.56,4.72,18.67,13.6,18.67s13.6-11.11,13.6-18.67a13.65,13.65,0,0,0-13.6-13.71A13.66,13.66,0,0,0-104.94,90.49Z" transform="translate(116.59 -0.67)"/></g><g id="Icon_Youtube" data-name="Icon Youtube"><path class="cls-3" d="M122.67,1.21A30.79,30.79,0,1,0,153.46,32,30.83,30.83,0,0,0,122.67,1.21ZM129.85,32h-4.7V48.78h-7V32h-3.31V26.09h3.31V22.26c0-2.75,1.31-7,7-7l5.16,0V21h-3.75a1.42,1.42,0,0,0-1.48,1.61v3.49h5.31Z" transform="translate(116.59 -0.67)"/><path class="cls-3" d="M196.11,1.21A30.79,30.79,0,1,0,226.9,32,30.83,30.83,0,0,0,196.11,1.21Zm18.14,37.54a12.05,12.05,0,0,1-11.36,11.39c-1.88.11-3.8.17-5.71.19h-1.05c-2.25,0-4.51-.06-6.74-.18A12.07,12.07,0,0,1,178,38.84c-.13-2.26-.19-4.56-.19-6.84s.06-4.51.18-6.75a12,12,0,0,1,11.31-11.39,125.73,125.73,0,0,1,13.59,0,12.05,12.05,0,0,1,11.39,11.31c.12,2.27.19,4.57.19,6.84S214.38,36.51,214.25,38.75Z" transform="translate(116.59 -0.67)"/><path class="cls-3" d="M202.7,16.61c-2.19-.12-4.4-.18-6.59-.18s-4.46.06-6.69.18a9.28,9.28,0,0,0-8.7,8.79c-.12,2.19-.18,4.41-.18,6.6s.06,4.47.19,6.69a9.28,9.28,0,0,0,8.82,8.7c2.51.14,5.08.2,7.6.18,1.87,0,3.75-.08,5.58-.18a9.31,9.31,0,0,0,8.76-8.8c.13-2.18.19-4.4.19-6.59s-.06-4.46-.19-6.69A9.27,9.27,0,0,0,202.7,16.61Zm-6.59,24.91A9.52,9.52,0,1,1,205.62,32,9.53,9.53,0,0,1,196.11,41.52Zm9.49-17a2,2,0,1,1,2-2A2,2,0,0,1,205.6,24.49Z" transform="translate(116.59 -0.67)"/><circle class="cls-3" cx="312.7" cy="31.33" r="6.76"/><path class="cls-3" d="M335.23,16.19a15.31,15.31,0,0,0-12.4,24.31l-1.91,5.69,5.88-1.89a15.32,15.32,0,1,0,8.43-28.11Zm9.16,22.31a4.81,4.81,0,0,1-3.26,2.12c-.86,0-.89.67-5.59-1.39s-7.54-7.07-7.76-7.4A9,9,0,0,1,326,26.91a5.26,5.26,0,0,1,1.79-3.86,1.71,1.71,0,0,1,1.28-.54c.31,0,.62.06.9.07s.67-.13,1,.82,1.21,3.31,1.32,3.55a.85.85,0,0,1,0,.82,3.18,3.18,0,0,1-.5.77c-.24.26-.52.59-.73.79s-.5.47-.25,1a14.1,14.1,0,0,0,2.49,3.35,13.29,13.29,0,0,0,3.69,2.48c.47.25.74.22,1-.08s1.22-1.33,1.55-1.79.65-.37,1.07-.19,2.69,1.39,3.15,1.65.77.38.88.58A3.91,3.91,0,0,1,344.39,38.5Z" transform="translate(116.59 -0.67)"/><path class="cls-3" d="M334.89,1.21A30.79,30.79,0,1,0,365.69,32,30.82,30.82,0,0,0,334.89,1.21Zm.34,48.71a18.28,18.28,0,0,1-8.89-2.29l-10.19,3.26L319.47,41a18.41,18.41,0,1,1,15.76,8.9Z" transform="translate(116.59 -0.67)"/><path class="cls-3" d="M122.67,1.21A30.79,30.79,0,1,0,153.46,32,30.83,30.83,0,0,0,122.67,1.21ZM129.85,32h-4.7V48.78h-7V32h-3.31V26.09h3.31V22.26c0-2.75,1.31-7,7-7l5.16,0V21h-3.75a1.42,1.42,0,0,0-1.48,1.61v3.49h5.31Z" transform="translate(116.59 -0.67)"/><polygon class="cls-3" points="377.05 22.69 377.05 30.81 377.05 38.93 384.09 34.87 391.12 30.81 384.09 26.75 377.05 22.69"/><path class="cls-3" d="M266.44.67a30.8,30.8,0,1,0,30.8,30.79A30.82,30.82,0,0,0,266.44.67ZM287.52,38a8.42,8.42,0,0,1-8.39,8.4c-3.68.25-7.57.4-11.65.42-4.85,0-9.43-.13-13.72-.42a8.59,8.59,0,0,1-5.93-2.47A8.38,8.38,0,0,1,245.36,38V24.94a8.42,8.42,0,0,1,8.4-8.39c4-.29,8.29-.46,12.84-.46s8.62.18,12.53.46A8.58,8.58,0,0,1,285.06,19a8.37,8.37,0,0,1,2.46,5.93Z" transform="translate(116.59 -0.67)"/></g></svg>