<svg id="Novos_ícones_Pages" data-name="Novos ícones Pages" xmlns="http://www.w3.org/2000/svg" viewBox="0 0 52.12 51.98"><defs><style>.cls-1{fill:#fff;}</style></defs><path class="cls-1" d="M6.43,30.9c.48-9.51,5.34-17.73,15.18-22.26S41,5.47,49.42,12.59a25.75,25.75,0,0,1,1.79,37.66,26.09,26.09,0,0,1-14.79,7.67c-1.38.23-2-.06-1.94-1.61.07-5.65.06-11.3,0-17,0-1.5.59-2.06,2-2,1.08.05,2.17,0,3.25,0A1.42,1.42,0,0,0,41.37,36c.38-2.33.36-2.4-2-2.41h-.68c-4.72-.06-4.1.56-4.13-4.26a12.84,12.84,0,0,1,.2-2.55c.6-3.13,2.11-4.41,5.29-4.49,1.08,0,2.05,0,2.06-1.54S41.19,18.93,40,18.9c-.68,0-1.37,0-2,0-5,.18-7.63,2.83-7.8,7.85-.06,1.71-.06,3.43,0,5.14,0,1.26-.51,1.77-1.74,1.7-.79,0-1.6.05-2.39,0-1.39-.11-2.1.29-2.09,1.88s.61,2,2,1.95c4.73,0,4.14-.4,4.16,4.26s0,12.8,0,14.38-.32,2.07-2.16,1.75C15.66,55.68,6.42,44.68,6.43,30.9ZM37.25,47.55c0,1.83,0,3.66,0,5.48s.17,2.07,2.08,1.49A23.38,23.38,0,1,0,9.11,33.22c.42,9.7,7.3,18.84,16.5,21.31,1.17.31,1.76.1,1.76-1.2,0-3.88,0-7.77,0-11.65,0-1-.38-1.54-1.49-1.61-1.39-.09-3.74.09-4.09-.47-.34-.23-.31-1.09-.31-4.35s0-4.22,4.16-4.37c1.23,0,1.76-.48,1.74-1.73a20.43,20.43,0,0,1,.75-5.92,9,9,0,0,1,6-6.29,17,17,0,0,1,5.93-.53c4.46,0,4.48.05,4.45,4.37,0,4.73.64,4.15-4.18,4.2-2.55,0-3.1.7-3.08,3.75,0,2.07.09,2.1,2.85,2.14,5.23.08,4.4,2.14,4.16,4.63S44,39,43.14,39.62s-2.83.37-4.28.44c-1.17.06-1.64.53-1.62,1.67C37.28,43.67,37.25,45.61,37.25,47.55Z" transform="translate(-6.43 -6.01)"/></svg>