<svg id="Icon_Whats_no_Stroke" data-name="Icon Whats no Stroke" xmlns="http://www.w3.org/2000/svg" viewBox="0 0 62.98 61.31"><defs><style>.cls-1{fill:#044b9a;}</style></defs><g id="Icone_Atendimento_Tel" data-name="Icone Atendimento/Tel"><path class="cls-1" d="M32,10.77A25.94,25.94,0,1,0,57.94,36.71,25.94,25.94,0,0,0,32,10.77Zm0,48a22,22,0,0,1-22-22C30.62,40.17,35.68,23.1,35.68,23.1S40,32,52.74,29.33A22,22,0,0,1,32,58.72Z" transform="translate(-0.51 -1.35)"/><path class="cls-1" d="M8.58,35.37a21.21,21.21,0,0,1,.5-4.61H6.44A5.82,5.82,0,0,0,.51,36.44v3.87A5.83,5.83,0,0,0,6.44,46h4.92A21.67,21.67,0,0,1,8.58,35.37Z" transform="translate(-0.51 -1.35)"/><path class="cls-1" d="M57.56,30.76H54.92a21.21,21.21,0,0,1,.5,4.61A21.67,21.67,0,0,1,52.64,46h4.92a5.83,5.83,0,0,0,5.93-5.68V36.44A5.82,5.82,0,0,0,57.56,30.76Z" transform="translate(-0.51 -1.35)"/><path class="cls-1" d="M59.7,36.1H56.43V26.71c0-11.38-10-22.09-24.43-22.09S7.57,15.33,7.57,26.71V36.1H4.3V26.71C4.3,13.4,15.69,1.35,32,1.35S59.7,13.4,59.7,26.71Z" transform="translate(-0.51 -1.35)"/><path class="cls-1" d="M28.82,52.12a34.7,34.7,0,0,1-15.53-3.59,33.87,33.87,0,0,1-8.67-6.22l1.57-1.59a31.54,31.54,0,0,0,8.1,5.8,32.85,32.85,0,0,0,17.43,3.25L31.91,52C31,52.07,29.94,52.12,28.82,52.12Z" transform="translate(-0.51 -1.35)"/><rect class="cls-1" x="30.42" y="48.13" width="6.01" height="4.75" rx="2.38" transform="translate(-7.73 4.26) rotate(-8.66)"/></g></svg>