<svg id="Novos_ícones_Pages" data-name="Novos ícones Pages" xmlns="http://www.w3.org/2000/svg" viewBox="0 0 61.64 47.11"><defs><style>.cls-1{fill:#044b9a;}</style></defs><path class="cls-1" d="M62.58,52.75A59.06,59.06,0,0,1,51,29.7a1,1,0,0,0-1.13-.77A1,1,0,0,0,49,30V45.61H47.1a8.08,8.08,0,0,0-.16-1.48v-15A4.92,4.92,0,0,0,42,24.26H38.5V20.37a1,1,0,0,0-2,0v3.89H27.57v-13a2.84,2.84,0,0,0-2.84-2.85H10a2.85,2.85,0,0,0-2.84,2.85v13h0a4.91,4.91,0,0,0-4.91,4.92V41.5a9.47,9.47,0,0,0-1.07,4.4,9.66,9.66,0,0,0,9.65,9.66H37.46a9.66,9.66,0,0,0,9.48-7.88h2V53.4a1,1,0,0,0,1,1H61.78a1.06,1.06,0,0,0,.94-.59A1,1,0,0,0,62.58,52.75ZM9.19,11.29a.85.85,0,0,1,.84-.85h14.7a.84.84,0,0,1,.84.85v15a.84.84,0,0,1-.84.85H10a.85.85,0,0,1-.84-.85v-15ZM4.25,29.18a2.91,2.91,0,0,1,2.91-2.92h0v.07A2.85,2.85,0,0,0,10,29.18h14.7a2.85,2.85,0,0,0,2.84-2.85v-.07H42a2.92,2.92,0,0,1,2.92,2.92V39.82a9.61,9.61,0,0,0-7.48-3.57H10.83a9.62,9.62,0,0,0-6.58,2.61ZM37.46,53.56H10.83a7.67,7.67,0,0,1-7.61-6.92,6,6,0,0,1,0-.74,7.67,7.67,0,0,1,7.65-7.65H37.46a7.67,7.67,0,0,1,7.48,6.07,7.43,7.43,0,0,1,.17,1.58V46s0,0,0,0a5.85,5.85,0,0,1,0,.6,3.55,3.55,0,0,1-.06.47A7.66,7.66,0,0,1,37.46,53.56Zm13.59-1.19V36.8a60.52,60.52,0,0,0,3.36,7.44,61.09,61.09,0,0,0,5.23,8.13Z" transform="translate(-1.18 -8.44)"/><path class="cls-1" d="M9.35,43.5A2.47,2.47,0,1,0,11.82,46,2.48,2.48,0,0,0,9.35,43.5Z" transform="translate(-1.18 -8.44)"/><path class="cls-1" d="M19.27,43.5a2.47,2.47,0,1,0,0,4.94,2.47,2.47,0,1,0,0-4.94Z" transform="translate(-1.18 -8.44)"/><path class="cls-1" d="M29.18,43.5a2.47,2.47,0,1,0,0,4.94,2.47,2.47,0,1,0,0-4.94Z" transform="translate(-1.18 -8.44)"/><path class="cls-1" d="M39.1,43.5A2.47,2.47,0,1,0,41.57,46,2.48,2.48,0,0,0,39.1,43.5Z" transform="translate(-1.18 -8.44)"/></svg>