<svg id="Novos_ícones_Pages" data-name="Novos ícones Pages" xmlns="http://www.w3.org/2000/svg" viewBox="0 0 58.96 54.42"><defs><style>.cls-1{fill:#044b9a;}</style></defs><path class="cls-1" d="M61.73,60a1.52,1.52,0,0,1-.7,1.54,1.48,1.48,0,0,1-1.84-.21c-1.07-.91-2.12-1.86-3.16-2.8-3.89-3.51-7.8-7-11.65-10.55-.71-.65-1.17-.71-1.86,0-1.2,1.16-2.48,2.25-3.71,3.37-1.64,1.5-2.1,1.5-3.78,0-.59-.53-1.19-1-1.75-1.61a1.21,1.21,0,0,0-2,0c-.78.78-1.62,1.49-2.45,2.22a1.75,1.75,0,0,1-2.59-.06c-.66-.58-1.34-1.14-2-1.76a1.5,1.5,0,0,1-.13-2.24,1.32,1.32,0,0,1,2.1,0c1.1,1.29,1.86.71,2.72-.22A19.13,19.13,0,0,1,30.73,46c1.21-1,1.86-1,3.09.07.79.7,1.6,1.38,2.35,2.12.51.5.91.58,1.45.06,1-.9,2-1.78,3-2.64.48-.4.38-.66,0-1q-3.7-3.3-7.34-6.65c-.73-.67-1.26-.53-1.93.08-3.71,3.37-7.44,6.72-11.17,10.09L5.86,60.91a2.71,2.71,0,0,1-1.33.81A1.39,1.39,0,0,1,3,61a1.48,1.48,0,0,1,.39-1.91c1.48-1.37,3-2.75,4.48-4.1L30.63,34.48c1.3-1.16,1.9-1.22,3.07-.18q13.5,12.15,27,24.31C61.18,59.05,61.73,59.46,61.73,60Z" transform="translate(-2.77 -7.35)"/><path class="cls-1" d="M30.66,18.5c0-2.9,0-5.81,0-8.72,0-1.9.55-2.42,2.46-2.42H45.53c.82,0,1.62.06,2.07.88s0,1.49-.52,2.15a4.93,4.93,0,0,0,0,6.44c.47.61,1,1.19.55,2a2,2,0,0,1-2,1c-3.3,0-6.6,0-9.9,0-1.86,0-1.86,0-1.87,1.8s0,3.88,0,5.81c0,1.39-.67,2.2-1.66,2.1-1.23-.13-1.53-1-1.53-2.1Q30.66,23,30.66,18.5Zm7.88-1.85c1.23,0,2.46,0,3.7,0,.74,0,1.06-.22.83-1a7.14,7.14,0,0,1,0-4.17c.24-.78,0-1.06-.78-1.05-2.47,0-4.93,0-7.4,0-.72,0-1.05.29-1.05,1,0,1.36,0,2.73,0,4.09,0,.88.43,1.15,1.23,1.13C36.24,16.63,37.39,16.65,38.54,16.65Z" transform="translate(-2.77 -7.35)"/></svg>