<svg id="Novos_ícones_Pages" data-name="Novos ícones Pages" xmlns="http://www.w3.org/2000/svg" viewBox="0 0 62.93 57.14"><defs><style>.cls-1{fill:#044b9a;}</style></defs><path class="cls-1" d="M13,29.62h-.46c-.73,0-1.75-.05-1.84,1.19a1.24,1.24,0,0,0,.26,1,1.93,1.93,0,0,0,1.41.44l.36,0H13c.87,0,2,0,2-1.32a1.19,1.19,0,0,0-.32-.93A2.32,2.32,0,0,0,13,29.62Z" transform="translate(-0.54 -3.43)"/><path class="cls-1" d="M45.35,29.62v0h-.59a2,2,0,0,0-1.49.38A1.26,1.26,0,0,0,43,31c.07,1.22,1.08,1.23,1.74,1.24h.53c.83,0,2.09,0,2.1-1.29A1.29,1.29,0,0,0,47,30,2.15,2.15,0,0,0,45.35,29.62Z" transform="translate(-0.54 -3.43)"/><path class="cls-1" d="M29.28,29.61v0H29a4,4,0,0,1-.51,0c-.64,0-1.6,0-1.65,1.22a1.27,1.27,0,0,0,.3,1,2.1,2.1,0,0,0,1.58.39h.77a1.89,1.89,0,0,0,1.37-.39,1.25,1.25,0,0,0,.34-1C31.17,29.63,30.08,29.62,29.28,29.61Z" transform="translate(-0.54 -3.43)"/><path class="cls-1" d="M13.16,47.83h0a4.29,4.29,0,0,1-.5,0h-.06c-.7,0-1.75-.1-1.94,1.16a1.15,1.15,0,0,0,.2.94,2,2,0,0,0,1.5.51l.21,0h.55c.79,0,1.78,0,1.9-1.28a1.09,1.09,0,0,0-.28-.93A2,2,0,0,0,13.16,47.83Z" transform="translate(-0.54 -3.43)"/><path class="cls-1" d="M45.49,47.82h-.4a3.63,3.63,0,0,1-.5,0c-.65,0-1.64,0-1.62,1.29s1.1,1.3,1.75,1.3h.89c.71,0,1.66-.13,1.72-1.24a1.24,1.24,0,0,0-.28-1A2.09,2.09,0,0,0,45.49,47.82Z" transform="translate(-0.54 -3.43)"/><path class="cls-1" d="M18.78,33.68l0,.12v-.12h-.09a2.39,2.39,0,0,1-.38,0c-.54,0-1.55-.06-1.61,1.2a1.22,1.22,0,0,0,.33,1,2,2,0,0,0,1.45.43h.66c.82,0,1.94,0,1.95-1.38a1.09,1.09,0,0,0-.31-.83A2.78,2.78,0,0,0,18.78,33.68Z" transform="translate(-0.54 -3.43)"/><path class="cls-1" d="M29.19,33.68l0,.12v-.12h-.32a2.12,2.12,0,0,1-.45,0h0A1.68,1.68,0,0,0,27.1,34a1.3,1.3,0,0,0-.29,1c.06,1.12,1,1.27,1.73,1.27h.72a2.14,2.14,0,0,0,1.6-.42,1.26,1.26,0,0,0,.3-1C31.12,33.66,30.05,33.67,29.19,33.68Z" transform="translate(-0.54 -3.43)"/><path class="cls-1" d="M35.25,33.67v0h-.58a2,2,0,0,0-1.49.33,1.21,1.21,0,0,0-.32.88c0,1.33,1.14,1.38,2,1.41h.29l.41,0c.75-.05,1.78-.12,1.72-1.37S36,33.65,35.25,33.67Z" transform="translate(-0.54 -3.43)"/><path class="cls-1" d="M45.45,33.68H44.6c-.62,0-1.57,0-1.63,1.14a1.35,1.35,0,0,0,.32,1,2,2,0,0,0,1.5.42h.58c.75,0,1.89,0,2-1.21a1.28,1.28,0,0,0-.3-1A2.08,2.08,0,0,0,45.45,33.68Z" transform="translate(-0.54 -3.43)"/><path class="cls-1" d="M50.78,36.29h.63a3.31,3.31,0,0,0,1.27-.16,1.2,1.2,0,0,0,.71-1.22,1.13,1.13,0,0,0-.31-.84,2.83,2.83,0,0,0-2-.38H51a2.27,2.27,0,0,1-.37,0,1.76,1.76,0,0,0-1.25.29,1.27,1.27,0,0,0-.35.92,1.24,1.24,0,0,0,.32,1A2,2,0,0,0,50.78,36.29Z" transform="translate(-0.54 -3.43)"/><path class="cls-1" d="M19,29.61h-.26l-.4,0c-.65,0-1.64,0-1.67,1.24a1.25,1.25,0,0,0,.3.95,2.2,2.2,0,0,0,1.65.41h.6a2,2,0,0,0,1.48-.41,1.26,1.26,0,0,0,.34-1C21.06,29.63,19.93,29.62,19,29.61Z" transform="translate(-0.54 -3.43)"/><path class="cls-1" d="M19.11,47.82v0h-.63c-.7,0-1.74,0-1.78,1.25a1.27,1.27,0,0,0,.3,1,2.28,2.28,0,0,0,1.66.41h.59A2,2,0,0,0,20.73,50a1.26,1.26,0,0,0,.34-1C21.06,47.83,19.93,47.82,19.11,47.82Z" transform="translate(-0.54 -3.43)"/><path class="cls-1" d="M35.21,29.62v0h-.41c-.78,0-1.87,0-1.92,1.24a1.26,1.26,0,0,0,.29.95,2.06,2.06,0,0,0,1.52.42h.44a2.5,2.5,0,0,0,1.79-.42,1.28,1.28,0,0,0,.33-.94,1.18,1.18,0,0,0-.32-.87A2.29,2.29,0,0,0,35.21,29.62Z" transform="translate(-0.54 -3.43)"/><path class="cls-1" d="M51.41,29.61l0,.13v-.12h-.45a2.11,2.11,0,0,0-1.59.39,1.21,1.21,0,0,0-.32.93c0,1.28,1.1,1.27,1.64,1.27h.81c.87,0,1.88-.14,1.93-1.23a1.32,1.32,0,0,0-.31-1A2.34,2.34,0,0,0,51.41,29.61Z" transform="translate(-0.54 -3.43)"/><path class="cls-1" d="M13.08,33.68h-.34a2.66,2.66,0,0,1-.49,0A1.74,1.74,0,0,0,11,34a1.29,1.29,0,0,0-.31,1,1.22,1.22,0,0,0,.36.91,1.94,1.94,0,0,0,1.36.4h.39c.63,0,1.44.07,1.91-.41a1.28,1.28,0,0,0,.33-.94,1.19,1.19,0,0,0-.32-.88A2.26,2.26,0,0,0,13.08,33.68Z" transform="translate(-0.54 -3.43)"/><path class="cls-1" d="M51.42,47.83H51a2.26,2.26,0,0,0-1.65.38,1.36,1.36,0,0,0-.36,1c0,1.2,1.15,1.21,1.9,1.23h.59c.69,0,1.84,0,1.9-1.29a1.16,1.16,0,0,0-.29-.9A2.25,2.25,0,0,0,51.42,47.83Z" transform="translate(-0.54 -3.43)"/><path class="cls-1" d="M13.39,51.89v0h-.74a2.29,2.29,0,0,0-1.64.4,1.27,1.27,0,0,0-.35.94,1.31,1.31,0,0,0,.3,1,1.49,1.49,0,0,0,1.12.29H13c1.44,0,2,0,2-1.43a1.23,1.23,0,0,0-.28-1C14.44,51.86,14,51.87,13.39,51.89Z" transform="translate(-0.54 -3.43)"/><path class="cls-1" d="M19.11,51.88h-.79a1.75,1.75,0,0,0-1.32.34,1.24,1.24,0,0,0-.32,1,1.26,1.26,0,0,0,.36.91,2.1,2.1,0,0,0,1.45.41h.58c.77,0,1.93,0,2-1.25a1.26,1.26,0,0,0-.29-1A2.28,2.28,0,0,0,19.11,51.88Z" transform="translate(-0.54 -3.43)"/><path class="cls-1" d="M45.46,51.89h-.4a2.26,2.26,0,0,1-.46,0c-.63,0-1.58,0-1.63,1.16a1.33,1.33,0,0,0,.33,1,2,2,0,0,0,1.49.42h.56c.72,0,1.92,0,2-1.23a1.26,1.26,0,0,0-.3-1A2.11,2.11,0,0,0,45.46,51.89Z" transform="translate(-0.54 -3.43)"/><path class="cls-1" d="M51.4,51.88v0h-.58c-.73,0-1.74-.05-1.81,1.15a1.34,1.34,0,0,0,.29,1,2.31,2.31,0,0,0,1.69.5h.22l.44,0c.73,0,1.74-.1,1.75-1.3a1.22,1.22,0,0,0-.33-.93A2.27,2.27,0,0,0,51.4,51.88Z" transform="translate(-0.54 -3.43)"/><path class="cls-1" d="M27.62,18c.83,0,1.06.17,1.09,1,.1,2.33.79,3,3.06,3.07h.35c2.32,0,3-.59,3.23-3,.09-.82.2-1.09,1-1.14,2.39-.14,2.92-.69,2.94-3.14,0-2.66-.5-3.23-3.09-3.36-.79,0-.81-.33-.86-.92,0-.11,0-.22,0-.33-.29-2.32-1.09-2.93-3.7-2.87-2.16.07-2.9.83-2.94,3,0,.92-.21,1.11-1.16,1.13-2.2,0-2.89.78-2.93,3.19S25.29,17.9,27.62,18Zm5-7.83c.12.12.15.36.12.73a2.87,2.87,0,0,0,.56,2.25h0a3.27,3.27,0,0,0,2.46.91c.42,0,.81,0,1,.22a.79.79,0,0,1,.08.6.75.75,0,0,1-.1.51,1.15,1.15,0,0,1-.72.15H35.8c-2.46.15-2.88.57-3,3v.28c0,.55,0,.77-.62.8a.89.89,0,0,1-.63-.15,1.33,1.33,0,0,1-.19-.91,3.12,3.12,0,0,0-.84-2.42,2.63,2.63,0,0,0-1.85-.62,3.52,3.52,0,0,0-.45,0,1.12,1.12,0,0,1-.78-.12.77.77,0,0,1-.17-.58.9.9,0,0,1,.15-.6c.12-.12.35-.17.76-.17a3.28,3.28,0,0,0,2.45-.86,3.17,3.17,0,0,0,.74-2.41.84.84,0,0,1,.13-.62A.82.82,0,0,1,32,10,.75.75,0,0,1,32.65,10.18Z" transform="translate(-0.54 -3.43)"/><path class="cls-1" d="M63.16,58.21h0c-.31-.3-.76-.29-1.44-.28h-.51a1.74,1.74,0,0,1-1.3-.36,1.89,1.89,0,0,1-.36-1.39c.06-9.72,0-21.46,0-30.61a3,3,0,0,1,1-2.58,3.13,3.13,0,0,0,1-2.64,2.39,2.39,0,0,0-1.13-1.89A10.41,10.41,0,0,1,57,14.59c-.3-.48-.61-1-.94-1.45a3.43,3.43,0,0,0-3.16-1.69c-1.36,0-2.77,0-4,0h-.21c-1.32,0-2.69,0-4,0-.57,0-.9-.05-1.07-.24a1.2,1.2,0,0,1-.18-.94,22.78,22.78,0,0,0,0-3.6c-.15-2-1.31-3.22-3.21-3.24-5.49-.06-11-.05-16.34,0A3,3,0,0,0,20.7,6.75v.06a29.88,29.88,0,0,0,0,3.54,1.25,1.25,0,0,1-.19,1,.59.59,0,0,1-.47.2l-.6,0H19.4c-.54,0-1.21,0-1.53,0a.68.68,0,0,1-.54-.14,1.35,1.35,0,0,1-.23-1,2,2,0,0,0-.37-1.56,1.19,1.19,0,0,0-1-.3c-1.15.05-1.12,1.1-1.1,1.73v.11c0,.4,0,.72-.15.89a.93.93,0,0,1-.65.18,1,1,0,0,1-.69-.17c-.18-.18-.17-.53-.17-.93v-.11C13,8.69,13,7,13,5a1.56,1.56,0,0,0-.41-1.18,1.21,1.21,0,0,0-.94-.27c-1.07.09-1.07,1.07-1.07,1.48V6.62c0,1.27,0,2.58,0,3.88v.16c0,.22,0,.6-.12.73a.21.21,0,0,1-.16,0A3,3,0,0,0,8,13.15c-.11.16-.22.33-.34.49-.34.45-.64.92-1,1.4a10.11,10.11,0,0,1-3,3.36A2.75,2.75,0,0,0,2.4,20.62a3.09,3.09,0,0,0,1.2,2.57,2.49,2.49,0,0,1,.93,2.38v5.5c0,8,0,17.08,0,24.73v.28c0,.76,0,1.26-.23,1.51s-.79.35-1.83.35h-.1c-1.23,0-1.84,0-1.87,1.21A1.31,1.31,0,0,0,.83,60.2c.33.34.88.37,1.75.37H61.26a4.75,4.75,0,0,0,1.63-.15c.4-.18.57-.53.57-1.18A1.35,1.35,0,0,0,63.16,58.21ZM31.1,56.8ZM53,17.53c-2.87,0-5.84,0-8.83,0-.49,0-.66-.11-.73-.77-.13-1.31-.2-2.13.09-2.46s.9-.34,2.33-.34h1.5c.61,0,1.36,0,3,0,3.48,0,3.48,0,4.94,2.7.15.27.31.57.5.9Zm-9.57,3.4a1.21,1.21,0,0,1,.16-.79c.11-.12.36-.17.77-.17h6.37l6.75,0c.74,0,1.2,0,1.38.2a1,1,0,0,1,.14.7c0,.72,0,.71-1.34.72H44.35C43.43,21.62,43.39,21.62,43.39,20.93ZM57,56.74a1.41,1.41,0,0,1-.23,1,1.25,1.25,0,0,1-.84.22h0c-5,0-10.19,0-15.41,0a1.23,1.23,0,0,1-.92-.23,1.27,1.27,0,0,1-.21-.93c.06-2.63,0-5.24,0-7.9,0-2.34-.73-3.06-3-3.09l-4.33,0-4.32,0c-2.25,0-3,.81-3,3.1,0,2.68-.05,5.31,0,7.9a1.24,1.24,0,0,1-.22.91,1.23,1.23,0,0,1-.9.23h0c-4.57,0-9.47,0-15.44,0-.45,0-.72-.06-.86-.21a1.07,1.07,0,0,1-.2-.79c0-2.56,0-6,0-9.13v-.26c0-1.49,0-2.91,0-4.13a1.24,1.24,0,0,1,.24-.88,1.49,1.49,0,0,1,1-.18h38.3c1.38,0,1.73-.15,1.75-1.3V41c0-.48,0-.8-.2-1s-.66-.26-1.66-.26H25.63l-17,0a1.78,1.78,0,0,1-1.32-.4A1.79,1.79,0,0,1,7,38c.11-4.5.06-8.89,0-12.6a1.55,1.55,0,0,1,.25-1.12,1.44,1.44,0,0,1,1-.25c2.68.05,5.4,0,8.06,0H20c.45,0,.84,0,1.06.36,1,1.66,2.56,1.8,4.1,1.8H39c1.5,0,3-.21,3.95-1.74.25-.39.54-.41,1.05-.41h3.76c2.66,0,5.41,0,8.11,0,.49,0,.76.07.91.22a1.28,1.28,0,0,1,.24.94C56.94,34.76,56.94,46.56,57,56.74ZM20.51,17.41c-.06.11-.52.12-.74.12H8.1l2.27-3.32c.21.12.21.24.22.44a.76.76,0,0,0,0,.15A1.19,1.19,0,0,0,11.76,16,1.15,1.15,0,0,0,13,14.85c0-.57.22-.76.8-.77h0a.93.93,0,0,1,.69.19.81.81,0,0,1,.19.62,1.08,1.08,0,0,0,1,1.11,1.2,1.2,0,0,0,.92-.27,1.14,1.14,0,0,0,.38-.82c0-.8.37-.85.52-.87a23.51,23.51,0,0,1,2.52,0,.51.51,0,0,1,.5.45A4.82,4.82,0,0,1,20.51,17.41ZM19.67,20c.75,0,1,.24,1,.9a.8.8,0,0,1-.15.6,1.19,1.19,0,0,1-.8.14H6.44c-.54,0-1,0-1.16-.2a1.22,1.22,0,0,1,0-1.26c.18-.18.56-.18,1-.17H19.67ZM23.16,7.32a1.5,1.5,0,0,1,.3-1.09,1.51,1.51,0,0,1,1.12-.29c5.11,0,10.09,0,14.82,0a1.56,1.56,0,0,1,1.1.3,1.55,1.55,0,0,1,.3,1.12c0,5.38,0,10.22,0,14.82a1.44,1.44,0,0,1-.3,1.1,1.5,1.5,0,0,1-1.11.29c-.9,0-1.87,0-3.06,0H32.11q-.78,0-1.56,0h-.64c-1.75,0-3.55,0-5.35,0a1.47,1.47,0,0,1-1.09-.29,1.53,1.53,0,0,1-.31-1.13C23.2,17.36,23.2,12.38,23.16,7.32Zm10.09,44V51c0-1,0-1.78,0-2.16s.07-.53.11-.57.21,0,.38,0H34c1.25,0,2,0,2.25,0,.62,0,.62,0,.62,1.08,0,.65,0,1.3,0,2s0,1.32,0,2c0,.4,0,.7,0,1s0,.91,0,1.78,0,1.56-.24,1.76-.57.15-1.17.13h-.94c-.49,0-.85,0-1-.15s-.28-.71-.28-1.78S33.24,53,33.25,51.36Zm-6-.19V51c0-.61,0-1.2,0-1.74,0-1,.23-1,.59-1,.16,0,.58,0,1.09,0l1.33,0h.08c.38,0,.53.05.53,1.07v7.52c0,.62,0,.87-.13,1a4.47,4.47,0,0,1-1.59.12h-.55c-.6,0-1,0-1.14-.13s-.19-.84-.19-1.93V53C27.26,52.41,27.25,51.79,27.25,51.17Z" transform="translate(-0.54 -3.43)"/></svg>