<svg id="Abrir_WhatsApp" data-name="Abrir WhatsApp" xmlns="http://www.w3.org/2000/svg" viewBox="0 0 48.91 49.29"><defs><style>.cls-1{fill:#999;fill-rule:evenodd;}</style></defs><path class="cls-1" d="M36.7,29.82c-.6-.33-3.56-1.92-4.11-2.15s-1-.34-1.39.26-1.66,1.93-2,2.32-.73.44-1.34.11A16.69,16.69,0,0,1,23,27.13a18.25,18.25,0,0,1-3.25-4.37c-.34-.63,0-1,.31-1.24s.64-.69,1-1a4.29,4.29,0,0,0,.65-1,1.1,1.1,0,0,0,0-1.07c-.14-.32-1.25-3.38-1.72-4.62s-1-1.06-1.34-1.08-.76-.08-1.17-.09a2.22,2.22,0,0,0-1.66.7,6.85,6.85,0,0,0-2.34,5c-.11,3,2,6,2.27,6.43s4,7,10.12,9.65,6.17,1.87,7.3,1.81,3.68-1.35,4.24-2.76a5.12,5.12,0,0,0,.47-2.9c-.14-.26-.55-.43-1.15-.76ZM25.44,44.35a19.81,19.81,0,0,1-11-3.3L6.77,43.51l2.49-7.43a20,20,0,1,1,16.18,8.27Zm0-44A24,24,0,0,0,4.88,36.76L.54,49.65l13.3-4.26a24,24,0,1,0,11.6-45Z" transform="translate(-0.54 -0.35)"/></svg>