<svg id="Icon_Whats_no_Stroke" data-name="Icon Whats no Stroke" xmlns="http://www.w3.org/2000/svg" viewBox="0 0 60.62 41.73"><defs><style>.cls-1{fill:#044b9a;fill-rule:evenodd;}</style></defs><g id="Icon_Email" data-name="Icon Email"><path class="cls-1" d="M120,35.83,92.36,18.37V50.53a2.33,2.33,0,0,0,2.33,2.33h56A2.33,2.33,0,0,0,153,50.53V18.37L125.31,35.83A5,5,0,0,1,120,35.83Z" transform="translate(-92.36 -11.14)"/><path class="cls-1" d="M125.31,31.1,153,13.64v-.17a2.33,2.33,0,0,0-2.33-2.33h-56a2.33,2.33,0,0,0-2.33,2.33v.17L120,31.1A5,5,0,0,0,125.31,31.1Z" transform="translate(-92.36 -11.14)"/></g></svg>