<svg xmlns="http://www.w3.org/2000/svg" width="41.12" height="41.16" viewBox="0 0 41.12 41.16">
  <defs>
    <style>
      .cls-1 {
        fill: #fff;
        fill-rule: evenodd;
        opacity: 0.5;
      }
    </style>
  </defs>
  <path id="whats1_1" data-name="whats1 1" class="cls-1" d="M1066.74,4104a20.575,20.575,0,1,1,20.58-20.57A20.556,20.556,0,0,1,1066.74,4104Zm12.2-23.52a12.513,12.513,0,0,0-12.2-9.66,16.011,16.011,0,0,0-2.39.25,12.494,12.494,0,0,0-8.57,18.22,0.793,0.793,0,0,1,.12.63c-0.59,1.9-1.12,3.87-1.64,5.81-0.09.33-.09,0.33,0.23,0.25,2.03-.56,4.04-1.07,6.06-1.58a0.623,0.623,0,0,1,.45.03A12.509,12.509,0,0,0,1078.94,4080.48Zm-10.44,13.1a5.52,5.52,0,0,1-1.44.12,10.848,10.848,0,0,1-5.64-1.44,0.669,0.669,0,0,0-.64-0.11c-1.13.28-2.23,0.58-3.36,0.87-0.23.07-.25,0.03-0.2-0.21,0.3-1.02.58-2.08,0.9-3.15a0.755,0.755,0,0,0-.13-0.75,10.341,10.341,0,0,1,.37-11.65,9.9,9.9,0,0,1,10.58-4.07,9.8,9.8,0,0,1,7.95,7.89A10.321,10.321,0,0,1,1068.5,4093.58Zm4.03-7.62a3.1,3.1,0,0,1-.42-0.2c-0.58-.26-1.19-0.55-1.8-0.83a0.538,0.538,0,0,0-.7.17c-0.29.4-.61,0.8-0.93,1.17a0.493,0.493,0,0,1-.64.15,8.429,8.429,0,0,1-4.27-3.67,0.467,0.467,0,0,1,.07-0.69,4.541,4.541,0,0,0,.77-1.03,0.623,0.623,0,0,0,.05-0.53c-0.36-.84-0.74-1.67-1.09-2.56a1.231,1.231,0,0,0-.28-0.33,1.915,1.915,0,0,0-1.67.25,3.4,3.4,0,0,0-1.12,3.34,6.944,6.944,0,0,0,1.45,2.94,12.621,12.621,0,0,0,6.77,4.98,3.38,3.38,0,0,0,1.3.17,2.137,2.137,0,0,0,.83-0.03,2.591,2.591,0,0,0,2.23-2.29C1073.15,4086.31,1073.15,4086.27,1072.53,4085.96Z" transform="translate(-1046.19 -4062.84)"/>
</svg>
