<svg id="Layer_9" data-name="Layer 9" xmlns="http://www.w3.org/2000/svg" viewBox="0 0 61.59 61.59"><defs><style>.cls-1{fill:#fff;}</style></defs><path class="cls-1" d="M123,16.19A15.33,15.33,0,0,0,110.6,40.5l-1.91,5.69,5.89-1.89A15.32,15.32,0,1,0,123,16.19Zm9.15,22.31a4.79,4.79,0,0,1-3.26,2.12c-.86,0-.88.67-5.59-1.39s-7.54-7.07-7.76-7.4a9.17,9.17,0,0,1-1.74-4.92,5.26,5.26,0,0,1,1.8-3.86,1.69,1.69,0,0,1,1.27-.54c.31,0,.63.06.9.07s.67-.13,1,.82S120,26.71,120.12,27a.85.85,0,0,1,0,.82,3.18,3.18,0,0,1-.5.77c-.24.26-.51.59-.73.79s-.5.47-.24,1a13.82,13.82,0,0,0,2.49,3.35,13,13,0,0,0,3.69,2.48c.46.25.74.22,1-.08s1.23-1.33,1.56-1.79.64-.37,1.06-.19,2.69,1.39,3.16,1.65.77.38.88.58A4,4,0,0,1,132.16,38.5Z" transform="translate(-91.87 -1.21)"/><path class="cls-1" d="M122.67,1.21A30.79,30.79,0,1,0,153.46,32,30.83,30.83,0,0,0,122.67,1.21ZM123,49.92a18.32,18.32,0,0,1-8.9-2.29l-10.19,3.26L107.24,41A18.41,18.41,0,1,1,123,49.92Z" transform="translate(-91.87 -1.21)"/></svg>