<svg id="Novos_ícones_Pages" data-name="Novos ícones Pages" xmlns="http://www.w3.org/2000/svg" viewBox="0 0 52.73 52.73"><defs><style>.cls-1{fill:#fff;}</style></defs><path class="cls-1" d="M58.78,21.73A15.65,15.65,0,0,0,43.28,5.94c-6.86-.16-13.92-.16-21.58,0A15.43,15.43,0,0,0,6.46,19.12a41.29,41.29,0,0,0-.31,8c0,1.48.09,2.89,0,4.17h0c0,1.42,0,2.75,0,4,0,2.64,0,4.93,0,7.27A15.81,15.81,0,0,0,22.11,58.51c3.38,0,6.83,0,10.31,0s6.92,0,10.41,0a15.75,15.75,0,0,0,16-15.89C58.84,35.48,58.84,28.45,58.78,21.73ZM55.56,35.55c0,2.54,0,5.17,0,7.74a12,12,0,0,1-11.95,12c-7.48,0-15,0-22.26,0a12,12,0,0,1-11.92-12c-.06-8-.05-15.23,0-22.25A11.86,11.86,0,0,1,21.27,9.15c3.76,0,7.52-.05,11.26-.05s7.48,0,11.16.05A12.06,12.06,0,0,1,55.55,21c0,2.56,0,5.16,0,7.67,0,1.16,0,2.31,0,3.46S55.56,34.43,55.56,35.55Z" transform="translate(-6.09 -5.82)"/><path class="cls-1" d="M32.6,18.91a13.33,13.33,0,0,0-9.51,3.9,13.1,13.1,0,0,0-3.91,9.32,13.32,13.32,0,0,0,3.9,9.47,13.14,13.14,0,0,0,9.36,3.9h0a13.29,13.29,0,0,0,9.42-22.68A13,13,0,0,0,32.6,18.91Zm-.13,3h0a10.27,10.27,0,0,1,.07,20.53h-.17A10.34,10.34,0,0,1,22.21,32.32a9.91,9.91,0,0,1,2.91-7.23A10.31,10.31,0,0,1,32.47,21.94Z" transform="translate(-6.09 -5.82)"/><path class="cls-1" d="M46.79,15.48a2.71,2.71,0,0,0-2,.76A2.64,2.64,0,0,0,44,18.1a2.74,2.74,0,0,0,2.61,2.64h0a2.73,2.73,0,0,0,2.6-2.68A2.44,2.44,0,0,0,46.79,15.48Z" transform="translate(-6.09 -5.82)"/></svg>