<svg id="Novos_ícones_Pages" data-name="Novos ícones Pages" xmlns="http://www.w3.org/2000/svg" viewBox="0 0 54.82 54.74"><defs><style>.cls-1{fill:#fff;}</style></defs><g id="Icon_Whats_Modern" data-name="Icon Whats Modern"><path class="cls-1" d="M32.5,60.14A24.45,24.45,0,0,1,21,57.57a3.94,3.94,0,0,0-2.82-.25Q13,58.64,7.76,59.86c-2.29.54-2.95-.1-2.36-2.36q1.29-4.92,2.73-9.81a3.78,3.78,0,0,0-.23-3,27.34,27.34,0,0,1,4.93-31.18C22.46,3.44,39.36,2.69,50,11.67a27.49,27.49,0,0,1,4.73,37C49.31,56.23,41.79,60,32.5,60.14ZM32.23,7.91a15.73,15.73,0,0,0-4,.4,33.92,33.92,0,0,0-3.85,1C10.43,13.9,3.6,30.26,10.13,43.55a6.25,6.25,0,0,1,.44,5.1C9.86,50.78,9.33,53,8.73,55.13c-.48,1.74-.31,1.91,1.51,1.48,2.57-.62,5.15-1.21,7.7-1.93a4.84,4.84,0,0,1,3.63.39,24.33,24.33,0,0,0,15.11,2.17A24.84,24.84,0,0,0,32.23,7.91Z" transform="translate(-5.07 -5.42)"/><path class="cls-1" d="M16.92,25.86a9,9,0,0,1,3-6.32,4.17,4.17,0,0,1,7,1.53c.53,1.28,1,2.57,1.6,3.82a3.59,3.59,0,0,1-.6,4.31c-1,1.06-.85,1.91,0,3a18.35,18.35,0,0,0,6.63,5.39c.94.46,1.6.45,2.18-.5a11.16,11.16,0,0,1,1.21-1.46A2.45,2.45,0,0,1,41,34.87c1.89.86,3.8,1.67,5.61,2.67s1.89,4.39,0,6.55a8.8,8.8,0,0,1-9.42,2.68c-8.85-2.35-14.92-8.11-19.17-16A10.84,10.84,0,0,1,16.92,25.86Zm3.22,3.25c3.8,7.65,9.52,13.07,18,15.2a6.34,6.34,0,0,0,6.14-1.44c1.33-1.22,1.34-2.58.13-3.52a14.16,14.16,0,0,0-3.3-1.66c-1-.29-1.79.13-2.63,1.3-1.51,2.08-2.19,2.11-4.58,1.1A19.78,19.78,0,0,1,24.7,32a2.27,2.27,0,0,1,.24-3.15,2.88,2.88,0,0,0,1-3.54c-.1-.28-1.11-2.66-1.45-3.24-.8-1.32-2.13-1.44-3.27-.24S18.53,25.25,20.14,29.11Z" transform="translate(-5.07 -5.42)"/></g></svg>