<svg id="Icon_Whats_no_Stroke" data-name="Icon Whats no Stroke" xmlns="http://www.w3.org/2000/svg" viewBox="0 0 62.98 55.86"><defs><style>.cls-1{fill:#044b9a;}</style></defs><g id="Icone_Atendimento_Tel" data-name="Icone Atendimento/Tel"><path class="cls-1" d="M32,10.74A24.6,24.6,0,1,0,56.6,35.33,24.6,24.6,0,0,0,32,10.74ZM32,56.2A20.87,20.87,0,0,1,11.13,35.33c19.57,3.28,24.36-12.9,24.36-12.9s4.06,8.45,16.18,5.91A20.88,20.88,0,0,1,32,56.2Z" transform="translate(-0.51 -4.07)"/><path class="cls-1" d="M8.58,35.33a21.28,21.28,0,0,1,.5-4.61H6.44A5.83,5.83,0,0,0,.51,36.4v3.87A5.82,5.82,0,0,0,6.44,46h4.92A21.64,21.64,0,0,1,8.58,35.33Z" transform="translate(-0.51 -4.07)"/><path class="cls-1" d="M57.56,30.72H54.92a21.28,21.28,0,0,1,.5,4.61A21.64,21.64,0,0,1,52.64,46h4.92a5.82,5.82,0,0,0,5.93-5.68V36.4A5.83,5.83,0,0,0,57.56,30.72Z" transform="translate(-0.51 -4.07)"/><path class="cls-1" d="M59.7,36.07H56.43V26.68c0-11.38-10-19.34-24.43-19.34S7.57,15.3,7.57,26.68v9.39H4.3V26.68C4.3,13.37,15.69,4.07,32,4.07s27.7,9.3,27.7,22.61Z" transform="translate(-0.51 -4.07)"/><path class="cls-1" d="M28.82,52.09a34.59,34.59,0,0,1-15.53-3.6,34.08,34.08,0,0,1-8.67-6.21l1.57-1.59a31.78,31.78,0,0,0,8.1,5.8,32.73,32.73,0,0,0,17.43,3.24L31.91,52C31,52,29.94,52.09,28.82,52.09Z" transform="translate(-0.51 -4.07)"/><rect class="cls-1" x="30.42" y="48.1" width="6.01" height="4.75" rx="2.38" transform="translate(-7.73 1.53) rotate(-8.66)"/></g></svg>