<svg id="Novos_ícones_Pages" data-name="Novos ícones Pages" xmlns="http://www.w3.org/2000/svg" viewBox="0 0 59.67 56.56"><defs><style>.cls-1{fill:#044b9a;}</style></defs><path class="cls-1" d="M40.37,9.57V36.12H33.06V3.72H11.59V25.48H2.16v34.8H61.84V9.57ZM13.87,6h16.9V36.12H23.63V25.48H13.87Zm0,52V52.36H11.59V58H4.45V27.76h16.9v8.36h-.17V58Zm26.5,0H33.06V52.28H30.77V58H23.63V38.41H40.37Zm19.18,0H51.92V52.28H49.63V58h-7V11.85h16.9Z" transform="translate(-2.16 -3.72)"/><rect class="cls-1" x="6.67" y="26.74" width="2.84" height="2.84"/><rect class="cls-1" x="12.22" y="26.74" width="2.84" height="2.84"/><rect class="cls-1" x="6.67" y="32.13" width="2.84" height="2.84"/><rect class="cls-1" x="12.22" y="32.13" width="2.84" height="2.84"/><rect class="cls-1" x="6.67" y="37.52" width="2.84" height="2.84"/><rect class="cls-1" x="12.22" y="37.52" width="2.84" height="2.84"/><rect class="cls-1" x="25.56" y="37.52" width="2.84" height="2.84"/><rect class="cls-1" x="31.11" y="37.52" width="2.84" height="2.84"/><rect class="cls-1" x="25.56" y="42.91" width="2.84" height="2.84"/><rect class="cls-1" x="31.11" y="42.91" width="2.84" height="2.84"/><rect class="cls-1" x="15.97" y="4.93" width="2.84" height="2.84"/><rect class="cls-1" x="21.52" y="4.93" width="2.84" height="2.84"/><rect class="cls-1" x="15.97" y="10.32" width="2.84" height="2.84"/><rect class="cls-1" x="21.52" y="10.32" width="2.84" height="2.84"/><rect class="cls-1" x="44.75" y="32.13" width="2.84" height="2.84"/><rect class="cls-1" x="50.29" y="32.13" width="2.84" height="2.84"/><rect class="cls-1" x="44.75" y="37.52" width="2.84" height="2.84"/><rect class="cls-1" x="50.29" y="37.52" width="2.84" height="2.84"/><rect class="cls-1" x="44.75" y="42.91" width="2.84" height="2.84"/><rect class="cls-1" x="50.29" y="42.91" width="2.84" height="2.84"/><rect class="cls-1" x="44.75" y="16.09" width="2.84" height="2.84"/><rect class="cls-1" x="50.29" y="16.09" width="2.84" height="2.84"/><rect class="cls-1" x="44.75" y="10.7" width="2.84" height="2.84"/><rect class="cls-1" x="50.29" y="10.7" width="2.84" height="2.84"/><rect class="cls-1" x="44.75" y="21.48" width="2.84" height="2.84"/><rect class="cls-1" x="50.29" y="21.48" width="2.84" height="2.84"/><rect class="cls-1" x="44.75" y="26.87" width="2.84" height="2.84"/><rect class="cls-1" x="50.29" y="26.87" width="2.84" height="2.84"/></svg>