<svg id="icone_telefone" data-name="icone telefone" xmlns="http://www.w3.org/2000/svg" viewBox="0 0 48.91 43.38"><defs><style>.cls-1{fill:#999;}</style></defs><path class="cls-1" d="M25,8.49a19.1,19.1,0,1,0,19.1,19.1A19.1,19.1,0,0,0,25,8.49ZM25,43.8A16.21,16.21,0,0,1,8.79,27.59c15.2,2.54,18.92-10,18.92-10s3.15,6.56,12.56,4.58A16.21,16.21,0,0,1,25,43.8Z" transform="translate(-0.54 -3.31)"/><path class="cls-1" d="M6.81,27.59A16.85,16.85,0,0,1,7.2,24h-2A4.53,4.53,0,0,0,.54,28.42v3a4.54,4.54,0,0,0,4.61,4.42H9A16.8,16.8,0,0,1,6.81,27.59Z" transform="translate(-0.54 -3.31)"/><path class="cls-1" d="M44.85,24H42.8A16.77,16.77,0,0,1,41,35.84h3.82a4.54,4.54,0,0,0,4.61-4.42v-3A4.53,4.53,0,0,0,44.85,24Z" transform="translate(-0.54 -3.31)"/><path class="cls-1" d="M46.51,28.16H44V20.87c0-8.84-7.8-15-19-15S6,12,6,20.87v7.29H3.49V20.87C3.49,10.53,12.33,3.31,25,3.31s21.51,7.22,21.51,17.56Z" transform="translate(-0.54 -3.31)"/><path class="cls-1" d="M22.53,40.6a26.9,26.9,0,0,1-12.06-2.79A26.59,26.59,0,0,1,3.73,33L5,31.75a25,25,0,0,0,6.29,4.5,25.57,25.57,0,0,0,13.54,2.52l.15,1.73C24.2,40.56,23.4,40.6,22.53,40.6Z" transform="translate(-0.54 -3.31)"/><rect class="cls-1" x="23.77" y="37.5" width="4.67" height="3.69" rx="1.84" transform="matrix(0.99, -0.15, 0.15, 0.99, -6.17, 1.07)"/></svg>