<svg xmlns="http://www.w3.org/2000/svg" width="40.999" height="40.999" viewBox="0 0 41.16 41.16">
  <defs>
    <style>
      .cls-1 {
        fill: #fff;
        fill-rule: evenodd;
        opacity: 0.5;
      }
    </style>
  </defs>
  <path id="face1_1" data-name="face1 1" class="cls-1" d="M995.6,4062.85a20.638,20.638,0,0,0-4.459,40.78v-15.55h-3.4v-4.95h3.4v-1.7a11.206,11.206,0,0,1,.637-4.36,4.776,4.776,0,0,1,2.283-2.35,8.357,8.357,0,0,1,4.248-.91,15.37,15.37,0,0,1,5.1.74l-0.8,4.33a10.69,10.69,0,0,0-2.812-.38,2.421,2.421,0,0,0-1.86.64,3.356,3.356,0,0,0-.585,2.4v1.59h4.507v4.95h-4.507V4104A20.615,20.615,0,0,0,995.6,4062.85Z" transform="translate(-975 -4062.84)"/>
</svg>
