<svg id="Novos_ícones_Pages" data-name="Novos ícones Pages" xmlns="http://www.w3.org/2000/svg" viewBox="0 0 56.47 59.25"><defs><style>.cls-1{fill:#044b9a;}</style></defs><path class="cls-1" d="M32.09,47.08q-10.68,0-21.37,0c-4.34,0-6.82-2.5-6.83-6.85V7.58C3.89,5.46,4.33,5,6.46,5Q17.54,5,28.63,5c1,0,1.93,0,2.15-1.33a1.22,1.22,0,0,1,1.32-.91,1.29,1.29,0,0,1,1.41,1c.23,1.16,1,1.26,1.93,1.26,7.39,0,14.78,0,22.17,0,2.39,0,2.75.38,2.75,2.77q0,16.26,0,32.52c0,4.26-2.5,6.76-6.77,6.77Q42.85,47.1,32.09,47.08Zm0-38.84c-7.83,0-15.66,0-23.49,0-1.25,0-1.69.34-1.68,1.64C7,20,7,30.12,7,40.25,7,42.79,8.16,44,10.71,44H53.57c2.53,0,3.71-1.21,3.71-3.76q0-15.13,0-30.26c0-1.72,0-1.73-1.81-1.73Z" transform="translate(-3.89 -2.79)"/><path class="cls-1" d="M33.74,55.41c0,1.23,0,2.46,0,3.68a9.8,9.8,0,0,1-.05,1.33c-.14.92-.57,1.62-1.61,1.59s-1.46-.78-1.52-1.69c-.07-1.06,0-2.12,0-3.19,0-.56,0-1.13,0-1.69-.62-.16-.79.29-1.05.54-1.74,1.7-3.45,3.42-5.19,5.13-1,1-2,1.14-2.64.39-.87-1-.35-1.77.41-2.52,2.85-2.84,5.68-5.69,8.54-8.53,1.12-1.12,1.84-1.15,2.94-.06q4.39,4.32,8.72,8.72c1,1,1,1.87.25,2.52s-1.71.36-2.44-.37l-6-6Z" transform="translate(-3.89 -2.79)"/><path class="cls-1" d="M50.69,21.08a2,2,0,0,0-1.21.83l-10,10c-2.38,2.36-4.78,2.35-7.16,0C30.82,30.48,29.39,29,28,27.6c-1.29-1.28-1.58-1.27-2.91,0l-4,4a2.14,2.14,0,0,1-1.48.79,1.38,1.38,0,0,1-1.33-.71,1.29,1.29,0,0,1,.09-1.61,48.4,48.4,0,0,1,6.06-5.92,4,4,0,0,1,5.23.62c1.72,1.65,3.39,3.36,5.07,5a1.51,1.51,0,0,0,2.42,0L48,19.06c.11-.12.19-.28.43-.63-1.8,0-3.42,0-5,0-1.06,0-1.92-.29-1.94-1.47s.81-1.59,1.87-1.6h8.62a1.74,1.74,0,0,1,2,1.86c0,2.92,0,5.83,0,8.75,0,1-.51,1.87-1.67,1.83s-1.49-.95-1.51-2C50.67,24.26,50.69,22.69,50.69,21.08Z" transform="translate(-3.89 -2.79)"/><path class="cls-1" d="M15.8,36.09c0,1.06-2.37,3.53-3.41,3.46a1.55,1.55,0,0,1-1.34-.94,1.26,1.26,0,0,1,.2-1.47c.68-.74,1.4-1.46,2.14-2.14a1.32,1.32,0,0,1,1.6-.17A1.39,1.39,0,0,1,15.8,36.09Z" transform="translate(-3.89 -2.79)"/></svg>