<svg id="Logo_site" data-name="Logo site" xmlns="http://www.w3.org/2000/svg" viewBox="0 0 187.34 54.13"><defs><style>.cls-1{fill:#1d71b8;}.cls-2{fill:#878787;}</style></defs><rect class="cls-1" y="24.51" width="19.61" height="9.8"/><rect class="cls-1" x="34.31" y="24.51" width="19.61" height="9.8"/><rect class="cls-1" y="44.12" width="19.61" height="9.8"/><rect class="cls-1" x="34.31" y="44.12" width="19.61" height="9.8"/><polygon class="cls-1" points="53.92 14.71 0 14.71 26.96 0 53.92 14.71"/><path class="cls-2" d="M4327.15,595.48v24.06h-2.51v-11.1h-15.05v11.1H4307V595.48h2.55V606.2h15.05V595.48Z" transform="translate(-4241.85 -588.51)"/><path class="cls-2" d="M4339,618.15a11.66,11.66,0,0,1-4.53-4.39,12.75,12.75,0,0,1,0-12.51,11.71,11.71,0,0,1,4.53-4.38,13.3,13.3,0,0,1,6.48-1.6,13.05,13.05,0,0,1,6.44,1.59,11.61,11.61,0,0,1,4.52,4.38,12.74,12.74,0,0,1,0,12.54,11.61,11.61,0,0,1-4.52,4.38,13,13,0,0,1-6.44,1.58A13.29,13.29,0,0,1,4339,618.15Zm11.64-2a9.31,9.31,0,0,0,3.6-3.58,10.58,10.58,0,0,0,0-10.2,9.31,9.31,0,0,0-3.6-3.58,11,11,0,0,0-10.33,0,9.35,9.35,0,0,0-3.64,3.58,10.44,10.44,0,0,0,0,10.2,9.35,9.35,0,0,0,3.64,3.58,11,11,0,0,0,10.33,0Z" transform="translate(-4241.85 -588.51)"/><path class="cls-2" d="M4366.22,617.06q-2.61-2.67-2.61-7.8V595.48h2.55v13.68c0,2.79.63,4.88,1.89,6.25a8.29,8.29,0,0,0,11,0c1.26-1.37,1.89-3.46,1.89-6.25V595.48h2.47v13.78q0,5.13-2.59,7.8a11.23,11.23,0,0,1-14.56,0Z" transform="translate(-4241.85 -588.51)"/><path class="cls-2" d="M4392.53,618.89a9.56,9.56,0,0,1-3.8-2.27l1-2a9.59,9.59,0,0,0,3.47,2.11,12.71,12.71,0,0,0,4.47.81,8.2,8.2,0,0,0,4.85-1.19,3.65,3.65,0,0,0,1.61-3.07,3.07,3.07,0,0,0-.88-2.31,6,6,0,0,0-2.14-1.32,33.4,33.4,0,0,0-3.54-1,35.79,35.79,0,0,1-4.33-1.33,7.08,7.08,0,0,1-2.77-1.94,5.15,5.15,0,0,1-1.15-3.54,6,6,0,0,1,1-3.31,6.53,6.53,0,0,1,3-2.39,12,12,0,0,1,4.95-.9,14.43,14.43,0,0,1,4,.57,11.47,11.47,0,0,1,3.42,1.57l-.86,2a11.7,11.7,0,0,0-3.23-1.49,12.11,12.11,0,0,0-3.36-.5,7.78,7.78,0,0,0-4.76,1.22,3.77,3.77,0,0,0-1.6,3.14,3.13,3.13,0,0,0,.87,2.32,5.74,5.74,0,0,0,2.2,1.34c.89.31,2.07.65,3.56,1a34.09,34.09,0,0,1,4.28,1.29,7,7,0,0,1,2.77,1.92,5.12,5.12,0,0,1,1.13,3.49,6,6,0,0,1-1,3.32,6.66,6.66,0,0,1-3,2.37,12.62,12.62,0,0,1-5,.87A15.53,15.53,0,0,1,4392.53,618.89Z" transform="translate(-4241.85 -588.51)"/><path class="cls-2" d="M4429.18,617.34v2.2h-17V595.48h16.5v2.2h-13.95v8.56h12.44v2.16h-12.44v8.94Z" transform="translate(-4241.85 -588.51)"/><polygon class="cls-2" points="67.6 39.22 77.03 39.22 77.03 37.05 65.2 37.05 65.2 53.99 67.6 53.99 67.6 47.09 76.01 47.09 76.01 44.92 67.6 44.92 67.6 39.22"/><path class="cls-2" d="M4325.94,625.56l-7.75,17h2.54l2-4.35h8.62l1.95,4.35h2.57l-7.75-17Zm4.43,10.52h-6.75l3.37-7.55Z" transform="translate(-4241.85 -588.51)"/><path class="cls-2" d="M4341.54,628.48a6.74,6.74,0,0,1,3.34-.84,6.19,6.19,0,0,1,4.57,1.82l.24.25,1.57-1.57-.23-.24a7.23,7.23,0,0,0-2.73-1.85,9.83,9.83,0,0,0-8,.48,8.15,8.15,0,0,0-3.18,3.09,9,9,0,0,0,0,8.82,8.12,8.12,0,0,0,3.17,3.09,9.23,9.23,0,0,0,4.52,1.12,9.41,9.41,0,0,0,3.48-.64,7.35,7.35,0,0,0,2.74-1.87l.23-.24-1.58-1.57-.24.25a6.06,6.06,0,0,1-4.56,1.85,6.74,6.74,0,0,1-3.34-.84,6.3,6.3,0,0,1-2.35-2.29,6.77,6.77,0,0,1,0-6.53A6.15,6.15,0,0,1,4341.54,628.48Z" transform="translate(-4241.85 -588.51)"/><rect class="cls-2" x="112.26" y="37.05" width="2.4" height="16.95"/><polygon class="cls-2" points="121.68 37.05 119.28 37.05 119.28 53.99 130.78 53.99 130.78 51.82 121.68 51.82 121.68 37.05"/><rect class="cls-2" x="132.96" y="37.05" width="2.4" height="16.95"/><polygon class="cls-2" points="137.42 39.22 143.13 39.22 143.13 53.99 145.54 53.99 145.54 39.22 151.25 39.22 151.25 37.05 137.42 37.05 137.42 39.22"/><rect class="cls-2" x="153.31" y="37.05" width="2.4" height="16.95"/><polygon class="cls-2" points="162.73 46.46 171.13 46.46 171.13 44.32 162.73 44.32 162.73 39.22 172.16 39.22 172.16 37.05 160.32 37.05 160.32 53.99 172.51 53.99 172.51 51.82 162.73 51.82 162.73 46.46"/><path class="cls-2" d="M4428.09,635.28a5,5,0,0,0-2-1.39,25.77,25.77,0,0,0-2.94-.89c-1-.24-1.79-.47-2.37-.67a3.58,3.58,0,0,1-1.36-.83,1.77,1.77,0,0,1-.49-1.32,2.23,2.23,0,0,1,.95-1.86,4.94,4.94,0,0,1,3-.75,8,8,0,0,1,2.18.32,7.94,7.94,0,0,1,2.09,1l.34.23.85-2-.23-.16a8.09,8.09,0,0,0-2.41-1.1,10,10,0,0,0-2.82-.4,8.57,8.57,0,0,0-3.49.63,4.87,4.87,0,0,0-2.15,1.75,4.44,4.44,0,0,0-.7,2.42,3.85,3.85,0,0,0,.86,2.62,5.25,5.25,0,0,0,2,1.41,26.28,26.28,0,0,0,3,.91,23.81,23.81,0,0,1,2.35.67,3.65,3.65,0,0,1,1.33.82,1.73,1.73,0,0,1,.49,1.31,2.12,2.12,0,0,1-1,1.8,5.2,5.2,0,0,1-3.07.74,8.23,8.23,0,0,1-2.9-.53,6.07,6.07,0,0,1-2.23-1.35l-.33-.33-1,2,.17.17a6.76,6.76,0,0,0,2.7,1.63,11.08,11.08,0,0,0,3.59.6,8.69,8.69,0,0,0,3.5-.63,4.82,4.82,0,0,0,2.19-1.72,4.42,4.42,0,0,0,.71-2.43A3.76,3.76,0,0,0,4428.09,635.28Z" transform="translate(-4241.85 -588.51)"/></svg>