<svg id="Logo_site" data-name="Logo site" xmlns="http://www.w3.org/2000/svg" viewBox="0 0 149.43 51.83"><defs><style>.cls-1{fill:#fff;}</style></defs><rect class="cls-1" y="23.53" width="18.83" height="9.41"/><rect class="cls-1" x="32.95" y="23.53" width="18.83" height="9.41"/><rect class="cls-1" y="42.36" width="18.83" height="9.41"/><rect class="cls-1" x="32.95" y="42.36" width="18.83" height="9.41"/><polygon class="cls-1" points="51.77 14.12 0 14.12 25.89 0 51.77 14.12"/><path class="cls-1" d="M4337.69,596.3v17.1h-1.78v-7.89h-10.7v7.89h-1.81V596.3h1.81v7.63h10.7V596.3Z" transform="translate(-4260.8 -589.67)"/><path class="cls-1" d="M4346.13,612.42a8.33,8.33,0,0,1-3.22-3.12,9.1,9.1,0,0,1,0-8.89,8.33,8.33,0,0,1,3.22-3.12,9.95,9.95,0,0,1,9.19,0,8.34,8.34,0,0,1,3.21,3.11,9,9,0,0,1,0,8.92,8.3,8.3,0,0,1-3.21,3.12,9.33,9.33,0,0,1-4.58,1.12A9.51,9.51,0,0,1,4346.13,612.42Zm8.27-1.4a6.61,6.61,0,0,0,2.57-2.54,7.53,7.53,0,0,0,0-7.25,6.63,6.63,0,0,0-2.57-2.55,7.36,7.36,0,0,0-3.66-.91,7.46,7.46,0,0,0-3.68.91,6.75,6.75,0,0,0-2.59,2.55,7.46,7.46,0,0,0,0,7.25,6.72,6.72,0,0,0,2.59,2.54,7.47,7.47,0,0,0,3.68.92A7.37,7.37,0,0,0,4354.4,611Z" transform="translate(-4260.8 -589.67)"/><path class="cls-1" d="M4365.47,611.65a7.63,7.63,0,0,1-1.85-5.55v-9.8h1.8V606a6.36,6.36,0,0,0,1.35,4.44,5,5,0,0,0,3.88,1.47,5,5,0,0,0,3.91-1.47,6.36,6.36,0,0,0,1.34-4.44V596.3h1.76v9.8a7.67,7.67,0,0,1-1.84,5.55,8,8,0,0,1-10.35,0Z" transform="translate(-4260.8 -589.67)"/><path class="cls-1" d="M4384.17,612.94a6.78,6.78,0,0,1-2.7-1.61l.71-1.39a6.85,6.85,0,0,0,2.47,1.5,9.12,9.12,0,0,0,3.18.57,5.8,5.8,0,0,0,3.44-.84,2.59,2.59,0,0,0,1.15-2.19,2.19,2.19,0,0,0-.62-1.63,4.11,4.11,0,0,0-1.53-.94,23.7,23.7,0,0,0-2.52-.73,23.78,23.78,0,0,1-3.07-.94,5,5,0,0,1-2-1.38,3.63,3.63,0,0,1-.82-2.51,4.31,4.31,0,0,1,.68-2.36,4.68,4.68,0,0,1,2.11-1.7,8.61,8.61,0,0,1,3.51-.63,10.25,10.25,0,0,1,2.87.4,8.43,8.43,0,0,1,2.44,1.11l-.62,1.44a8.73,8.73,0,0,0-4.69-1.42,5.5,5.5,0,0,0-3.38.87,2.7,2.7,0,0,0-1.14,2.24,2.23,2.23,0,0,0,.63,1.65,4.07,4.07,0,0,0,1.56.95c.63.22,1.47.46,2.53.72a25.69,25.69,0,0,1,3,.92,4.94,4.94,0,0,1,2,1.37,3.59,3.59,0,0,1,.8,2.48,4.23,4.23,0,0,1-.69,2.35,4.75,4.75,0,0,1-2.14,1.69,9,9,0,0,1-3.54.62A11,11,0,0,1,4384.17,612.94Z" transform="translate(-4260.8 -589.67)"/><path class="cls-1" d="M4410.23,611.84v1.56h-12.09V596.3h11.72v1.57h-9.92V604h8.85v1.54h-8.85v6.35Z" transform="translate(-4260.8 -589.67)"/><polygon class="cls-1" points="64.31 29.56 71.01 29.56 71.01 28.02 62.6 28.02 62.6 40.07 64.31 40.07 64.31 35.16 70.29 35.16 70.29 33.62 64.31 33.62 64.31 29.56"/><path class="cls-1" d="M4336.83,617.69l-5.51,12h1.81l1.39-3.09h6.12l1.39,3.09h1.83l-5.51-12Zm3.15,7.48h-4.8l2.4-5.37Z" transform="translate(-4260.8 -589.67)"/><path class="cls-1" d="M4347.92,619.76a4.78,4.78,0,0,1,2.38-.6,4.39,4.39,0,0,1,3.24,1.3l.18.18,1.11-1.12-.16-.17a5.15,5.15,0,0,0-1.94-1.32,6.81,6.81,0,0,0-2.46-.44,6.58,6.58,0,0,0-3.23.79,5.74,5.74,0,0,0-2.26,2.19,6.42,6.42,0,0,0,0,6.28A5.74,5.74,0,0,0,4347,629a6.5,6.5,0,0,0,3.21.79,6.71,6.71,0,0,0,2.48-.45,5.29,5.29,0,0,0,1.94-1.33l.16-.17-1.12-1.12-.17.18a4.33,4.33,0,0,1-3.24,1.32,4.89,4.89,0,0,1-2.38-.6,4.4,4.4,0,0,1-1.66-1.63,4.72,4.72,0,0,1,0-4.64A4.4,4.4,0,0,1,4347.92,619.76Z" transform="translate(-4260.8 -589.67)"/><rect class="cls-1" x="96.06" y="28.02" width="1.71" height="12.05"/><polygon class="cls-1" points="102.75 28.02 101.04 28.02 101.04 40.07 109.23 40.07 109.23 38.52 102.75 38.52 102.75 28.02"/><rect class="cls-1" x="110.77" y="28.02" width="1.71" height="12.05"/><polygon class="cls-1" points="113.94 29.56 118 29.56 118 40.07 119.71 40.07 119.71 29.56 123.78 29.56 123.78 28.02 113.94 28.02 113.94 29.56"/><rect class="cls-1" x="125.24" y="28.02" width="1.71" height="12.05"/><polygon class="cls-1" points="131.93 34.72 137.91 34.72 137.91 33.19 131.93 33.19 131.93 29.56 138.64 29.56 138.64 28.02 130.22 28.02 130.22 40.07 138.89 40.07 138.89 38.52 131.93 38.52 131.93 34.72"/><path class="cls-1" d="M4409.45,624.6a3.48,3.48,0,0,0-1.42-1,16.5,16.5,0,0,0-2.09-.63c-.7-.18-1.27-.34-1.68-.48a2.6,2.6,0,0,1-1-.59,1.27,1.27,0,0,1-.35-.94,1.59,1.59,0,0,1,.67-1.32,3.51,3.51,0,0,1,2.14-.54,5.6,5.6,0,0,1,1.55.23,5.77,5.77,0,0,1,1.49.69l.24.16.61-1.42-.16-.12a6,6,0,0,0-1.72-.78,7.17,7.17,0,0,0-2-.28,6,6,0,0,0-2.47.45,3.37,3.37,0,0,0-1.53,1.24,3.12,3.12,0,0,0-.5,1.72,2.74,2.74,0,0,0,.61,1.86,3.57,3.57,0,0,0,1.43,1,16.63,16.63,0,0,0,2.11.65,14.3,14.3,0,0,1,1.67.48,2.53,2.53,0,0,1,1,.58,1.24,1.24,0,0,1,.35.93,1.49,1.49,0,0,1-.68,1.28,3.68,3.68,0,0,1-2.18.53,5.88,5.88,0,0,1-2.07-.38,4.36,4.36,0,0,1-1.58-1l-.23-.23-.71,1.39.12.12a4.78,4.78,0,0,0,1.92,1.16,7.75,7.75,0,0,0,2.55.42,6.37,6.37,0,0,0,2.49-.44,3.41,3.41,0,0,0,1.55-1.23,3.1,3.1,0,0,0,.51-1.73A2.63,2.63,0,0,0,4409.45,624.6Z" transform="translate(-4260.8 -589.67)"/><rect class="cls-1" x="62.6" y="43.47" width="86.63" height="0.46"/><path class="cls-1" d="M4323.74,637.11v2h2.48v.31h-2.48v2.05h-.34v-4.65h3.11v.3Z" transform="translate(-4260.8 -589.67)"/><path class="cls-1" d="M4331.25,640.15h-2.7l-.59,1.31h-.37l2.14-4.65h.34l2.14,4.65h-.36Zm-.13-.28-1.22-2.69-1.22,2.69Z" transform="translate(-4260.8 -589.67)"/><path class="cls-1" d="M4334.72,641.19a2.26,2.26,0,0,1-.86-.85,2.43,2.43,0,0,1,0-2.41,2.26,2.26,0,0,1,.86-.85,2.72,2.72,0,0,1,2.16-.14,1.94,1.94,0,0,1,.73.48l-.21.22a2,2,0,0,0-1.43-.55,2.26,2.26,0,0,0-1.07.26,2,2,0,0,0-.75.74,2.16,2.16,0,0,0,0,2.09,2,2,0,0,0,.75.74,2.26,2.26,0,0,0,1.07.26,1.94,1.94,0,0,0,1.43-.56l.21.22a1.85,1.85,0,0,1-.73.49,2.72,2.72,0,0,1-2.16-.14Z" transform="translate(-4260.8 -589.67)"/><path class="cls-1" d="M4339.74,636.81h.34v4.65h-.34Z" transform="translate(-4260.8 -589.67)"/><path class="cls-1" d="M4342.7,636.81h.34v4.35h2.68v.3h-3Z" transform="translate(-4260.8 -589.67)"/><path class="cls-1" d="M4347.59,636.81h.34v4.65h-.34Z" transform="translate(-4260.8 -589.67)"/><path class="cls-1" d="M4351.44,637.11h-1.68v-.3h3.69v.3h-1.68v4.35h-.33Z" transform="translate(-4260.8 -589.67)"/><path class="cls-1" d="M4355.28,636.81h.34v4.65h-.34Z" transform="translate(-4260.8 -589.67)"/><path class="cls-1" d="M4361.45,641.16v.3h-3.21v-4.65h3.11v.3h-2.77V639h2.48v.3h-2.48v1.91Z" transform="translate(-4260.8 -589.67)"/><path class="cls-1" d="M4363.94,641.32a2,2,0,0,1-.73-.46l.16-.25a1.79,1.79,0,0,0,.66.42,2.36,2.36,0,0,0,.87.17,1.67,1.67,0,0,0,1-.26.79.79,0,0,0,.34-.66.67.67,0,0,0-.18-.49,1.17,1.17,0,0,0-.45-.29c-.18-.07-.42-.13-.72-.21a6.59,6.59,0,0,1-.82-.24,1.28,1.28,0,0,1-.52-.37,1,1,0,0,1-.22-.67,1.15,1.15,0,0,1,.18-.62,1.19,1.19,0,0,1,.55-.45,2.23,2.23,0,0,1,.92-.16,2.45,2.45,0,0,1,.76.11,2.23,2.23,0,0,1,.64.3l-.12.28a2.37,2.37,0,0,0-.62-.3,2.51,2.51,0,0,0-.66-.1,1.59,1.59,0,0,0-1,.26.83.83,0,0,0-.33.68.67.67,0,0,0,.18.49,1.21,1.21,0,0,0,.44.29,5.28,5.28,0,0,0,.73.21,8.54,8.54,0,0,1,.82.25,1.43,1.43,0,0,1,.52.36,1,1,0,0,1,.21.66,1.09,1.09,0,0,1-.18.61,1.22,1.22,0,0,1-.56.45,2.32,2.32,0,0,1-.93.16A2.61,2.61,0,0,1,4363.94,641.32Z" transform="translate(-4260.8 -589.67)"/><path class="cls-1" d="M4371.69,641.32a1.83,1.83,0,0,1-.72-.46l.15-.25a1.79,1.79,0,0,0,.66.42,2.36,2.36,0,0,0,.87.17,1.67,1.67,0,0,0,1-.26.79.79,0,0,0,.34-.66.67.67,0,0,0-.18-.49,1.17,1.17,0,0,0-.45-.29c-.18-.07-.42-.13-.72-.21a6.59,6.59,0,0,1-.82-.24,1.28,1.28,0,0,1-.52-.37,1,1,0,0,1-.22-.67,1.15,1.15,0,0,1,.18-.62,1.19,1.19,0,0,1,.55-.45,2.26,2.26,0,0,1,.92-.16,2.45,2.45,0,0,1,.76.11,2.23,2.23,0,0,1,.64.3l-.12.28a2.23,2.23,0,0,0-.62-.3,2.51,2.51,0,0,0-.66-.1,1.59,1.59,0,0,0-1,.26.83.83,0,0,0-.33.68.67.67,0,0,0,.18.49,1.17,1.17,0,0,0,.45.29,4.7,4.7,0,0,0,.72.21,8.54,8.54,0,0,1,.82.25,1.35,1.35,0,0,1,.52.36,1,1,0,0,1,.22.66,1.1,1.1,0,0,1-.19.61,1.22,1.22,0,0,1-.56.45,2.32,2.32,0,0,1-.93.16A2.61,2.61,0,0,1,4371.69,641.32Z" transform="translate(-4260.8 -589.67)"/><path class="cls-1" d="M4379.69,641.16v.3h-3.21v-4.65h3.11v.3h-2.77V639h2.48v.3h-2.48v1.91Z" transform="translate(-4260.8 -589.67)"/><path class="cls-1" d="M4385.16,641.46l-1.11-1.55-.46,0h-1.32v1.52h-.34v-4.65h1.66a2.12,2.12,0,0,1,1.38.41,1.5,1.5,0,0,1-.59,2.61l1.16,1.63Zm-1.57-1.82a1.72,1.72,0,0,0,1.14-.33,1.32,1.32,0,0,0,0-1.87,1.72,1.72,0,0,0-1.14-.33h-1.32v2.53Z" transform="translate(-4260.8 -589.67)"/><path class="cls-1" d="M4391.43,636.81l-2.08,4.65H4389l-2.07-4.65h.37l1.88,4.21,1.88-4.21Z" transform="translate(-4260.8 -589.67)"/><path class="cls-1" d="M4393.17,636.81h.34v4.65h-.34Z" transform="translate(-4260.8 -589.67)"/><path class="cls-1" d="M4396.87,641.19a2.22,2.22,0,0,1-.87-.85,2.5,2.5,0,0,1,0-2.41,2.22,2.22,0,0,1,.87-.85,2.49,2.49,0,0,1,1.23-.3,2.52,2.52,0,0,1,.93.16,1.9,1.9,0,0,1,.72.48l-.21.22a1.94,1.94,0,0,0-1.43-.55,2.22,2.22,0,0,0-1.06.26,2,2,0,0,0-.75.74,2.16,2.16,0,0,0,0,2.09,2,2,0,0,0,.75.74,2.22,2.22,0,0,0,1.06.26,1.91,1.91,0,0,0,1.43-.56l.21.22a1.81,1.81,0,0,1-.72.49,2.6,2.6,0,0,1-.93.16A2.49,2.49,0,0,1,4396.87,641.19Z" transform="translate(-4260.8 -589.67)"/><path class="cls-1" d="M4405.1,641.16v.3h-3.21v-4.65H4405v.3h-2.77V639h2.48v.3h-2.48v1.91Z" transform="translate(-4260.8 -589.67)"/><path class="cls-1" d="M4407.58,641.32a1.83,1.83,0,0,1-.72-.46l.15-.25a2,2,0,0,0,.66.42,2.38,2.38,0,0,0,.88.17,1.64,1.64,0,0,0,1-.26.77.77,0,0,0,.34-.66.67.67,0,0,0-.18-.49,1.21,1.21,0,0,0-.44-.29c-.18-.07-.42-.13-.72-.21a6.11,6.11,0,0,1-.82-.24,1.31,1.31,0,0,1-.53-.37,1,1,0,0,1-.21-.67,1.15,1.15,0,0,1,.18-.62,1.21,1.21,0,0,1,.54-.45,2.32,2.32,0,0,1,.93-.16,2.43,2.43,0,0,1,.75.11,2.3,2.3,0,0,1,.65.3l-.13.28a2.17,2.17,0,0,0-.61-.3,2.64,2.64,0,0,0-.66-.1,1.59,1.59,0,0,0-1,.26.83.83,0,0,0-.33.68.67.67,0,0,0,.18.49,1.06,1.06,0,0,0,.44.29,5.28,5.28,0,0,0,.73.21,7.44,7.44,0,0,1,.81.25,1.28,1.28,0,0,1,.52.36.92.92,0,0,1,.22.66,1.09,1.09,0,0,1-.18.61,1.22,1.22,0,0,1-.56.45,2.38,2.38,0,0,1-.93.16A2.66,2.66,0,0,1,4407.58,641.32Z" transform="translate(-4260.8 -589.67)"/></svg>