<svg id="Layer_1" data-name="Layer 1" xmlns="http://www.w3.org/2000/svg" viewBox="0 0 173.95 49.65"><defs><style>.cls-1{fill:#1d70b7;}.cls-2{fill:#868686;}</style></defs><rect class="cls-1" y="22.53" width="18.02" height="9.01"/><rect class="cls-1" x="31.54" y="22.53" width="18.02" height="9.01"/><rect class="cls-1" y="40.55" width="18.02" height="9.01"/><rect class="cls-1" x="31.54" y="40.55" width="18.02" height="9.01"/><polygon class="cls-1" points="49.56 13.52 0 13.52 24.78 0 49.56 13.52"/><path class="cls-2" d="M82.08,8.58V30.73H79.77V20.51H65.91V30.73H63.57V8.58h2.34v9.87H79.77V8.58Z" transform="translate(-2.19 -2.18)"/><path class="cls-2" d="M93,29.45a10.73,10.73,0,0,1-4.18-4,11.2,11.2,0,0,1-1.5-5.76,11.17,11.17,0,0,1,1.5-5.76,10.69,10.69,0,0,1,4.18-4,12.82,12.82,0,0,1,11.9,0,10.81,10.81,0,0,1,4.16,4,11.19,11.19,0,0,1,1.52,5.78,11.18,11.18,0,0,1-1.52,5.77,10.84,10.84,0,0,1-4.16,4,12.85,12.85,0,0,1-11.9,0Zm10.71-1.8a8.67,8.67,0,0,0,3.32-3.29,9.34,9.34,0,0,0,1.2-4.7,9.31,9.31,0,0,0-1.2-4.7,8.54,8.54,0,0,0-3.32-3.29,10.1,10.1,0,0,0-9.51,0A8.61,8.61,0,0,0,90.87,15a9.13,9.13,0,0,0-1.22,4.7,9.15,9.15,0,0,0,1.22,4.7,8.75,8.75,0,0,0,3.35,3.29,10.17,10.17,0,0,0,9.51,0Z" transform="translate(-2.19 -2.18)"/><path class="cls-2" d="M118.06,28.45c-1.6-1.64-2.4-4-2.4-7.18V8.58H118V21.17q0,3.87,1.74,5.76a7.66,7.66,0,0,0,10.1,0q1.74-1.89,1.74-5.76V8.58h2.27V21.27c0,3.14-.79,5.54-2.38,7.18a10.34,10.34,0,0,1-13.41,0Z" transform="translate(-2.19 -2.18)"/><path class="cls-2" d="M142.29,30.13a8.65,8.65,0,0,1-3.5-2.09l.92-1.8a8.72,8.72,0,0,0,3.2,1.94,11.55,11.55,0,0,0,4.11.75,7.58,7.58,0,0,0,4.46-1.09A3.39,3.39,0,0,0,153,25a2.84,2.84,0,0,0-.81-2.12,5.5,5.5,0,0,0-2-1.21,30.47,30.47,0,0,0-3.26-.94,34,34,0,0,1-4-1.22,6.51,6.51,0,0,1-2.55-1.78,4.76,4.76,0,0,1-1.06-3.26,5.47,5.47,0,0,1,.89-3.06,6,6,0,0,1,2.72-2.2,11.09,11.09,0,0,1,4.55-.82,13.32,13.32,0,0,1,3.72.52,10.87,10.87,0,0,1,3.15,1.44l-.79,1.87a11.06,11.06,0,0,0-3-1.38,11.25,11.25,0,0,0-3.1-.46,7.14,7.14,0,0,0-4.38,1.13,3.48,3.48,0,0,0-1.47,2.89,2.89,2.89,0,0,0,.81,2.14,5.13,5.13,0,0,0,2,1.23c.81.29,1.91.6,3.28.94a33.73,33.73,0,0,1,3.94,1.18,6.34,6.34,0,0,1,2.54,1.78,4.67,4.67,0,0,1,1.05,3.21,5.45,5.45,0,0,1-.9,3.05,6,6,0,0,1-2.77,2.18,11.57,11.57,0,0,1-4.59.81A14.15,14.15,0,0,1,142.29,30.13Z" transform="translate(-2.19 -2.18)"/><path class="cls-2" d="M176,28.71v2H160.37V8.58h15.19v2H162.71v7.87h11.46v2H162.71v8.23Z" transform="translate(-2.19 -2.18)"/><path class="cls-2" d="M65.17,38v5.94H73v1.38H65.17v6.4h-1.6V36.59H73.93V38Z" transform="translate(-2.19 -2.18)"/><path class="cls-2" d="M86,47.66H77.57l-1.81,4H74.1L81,36.59h1.58l6.9,15.1H87.8Zm-.59-1.29-3.62-8.12-3.62,8.12Z" transform="translate(-2.19 -2.18)"/><path class="cls-2" d="M94.28,50.83a7.33,7.33,0,0,1-2.83-2.75,8.1,8.1,0,0,1,0-7.87,7.22,7.22,0,0,1,2.84-2.75,8.23,8.23,0,0,1,4.06-1,8.46,8.46,0,0,1,3.1.56,6.5,6.5,0,0,1,2.42,1.64l-1,1a6,6,0,0,0-4.47-1.79,6.55,6.55,0,0,0-3.26.82A5.87,5.87,0,0,0,92.84,41a6.5,6.5,0,0,0,0,6.39,5.94,5.94,0,0,0,2.29,2.24,6.55,6.55,0,0,0,3.26.82,6,6,0,0,0,4.47-1.81l1,1a6.48,6.48,0,0,1-2.43,1.65,8.77,8.77,0,0,1-7.16-.42Z" transform="translate(-2.19 -2.18)"/><path class="cls-2" d="M107.28,36.59h1.59v15.1h-1.59Z" transform="translate(-2.19 -2.18)"/><path class="cls-2" d="M113.79,36.59h1.6V50.31h8.45v1.38h-10Z" transform="translate(-2.19 -2.18)"/><path class="cls-2" d="M126.5,36.59h1.59v15.1H126.5Z" transform="translate(-2.19 -2.18)"/><path class="cls-2" d="M136,38h-5.31V36.59h12.21V38h-5.31V51.69H136Z" transform="translate(-2.19 -2.18)"/><path class="cls-2" d="M145.39,36.59H147v15.1h-1.6Z" transform="translate(-2.19 -2.18)"/><path class="cls-2" d="M162.59,50.31v1.38H151.91V36.59h10.35V38h-8.75v5.38h7.8V44.7h-7.8v5.61Z" transform="translate(-2.19 -2.18)"/><path class="cls-2" d="M167.28,51.28a5.89,5.89,0,0,1-2.38-1.42l.62-1.23A6,6,0,0,0,167.7,50a7.92,7.92,0,0,0,2.8.5,5.12,5.12,0,0,0,3.05-.74,2.31,2.31,0,0,0,1-1.93,1.92,1.92,0,0,0-.55-1.45,3.84,3.84,0,0,0-1.35-.83,22.89,22.89,0,0,0-2.22-.63,25.2,25.2,0,0,1-2.72-.83A4.7,4.7,0,0,1,166,42.83a3.26,3.26,0,0,1-.72-2.22,3.73,3.73,0,0,1,.61-2.09,4.21,4.21,0,0,1,1.85-1.5,7.69,7.69,0,0,1,3.11-.56,9,9,0,0,1,2.53.36,7.33,7.33,0,0,1,2.15,1L175,39.07a7.32,7.32,0,0,0-2-.93,7.51,7.51,0,0,0-2.11-.32,4.88,4.88,0,0,0-3,.77,2.37,2.37,0,0,0-1,2,2,2,0,0,0,.55,1.46,3.42,3.42,0,0,0,1.38.84c.55.19,1.29.41,2.23.64a21.5,21.5,0,0,1,2.69.81,4.29,4.29,0,0,1,1.73,1.2,3.17,3.17,0,0,1,.71,2.19,3.68,3.68,0,0,1-.61,2.08,4.06,4.06,0,0,1-1.89,1.49,7.83,7.83,0,0,1-3.13.55A9.67,9.67,0,0,1,167.28,51.28Z" transform="translate(-2.19 -2.18)"/></svg>